<svg width="40" height="40" viewBox="0 0 40 40" fill="none" xmlns="http://www.w3.org/2000/svg">
<rect width="40" height="40" rx="5" fill="white"/>
<path d="M31.9819 11.5476C31.9527 11.5687 31.9253 11.592 31.8998 11.6174C29.3022 14.4053 26.9673 17.4269 24.9249 20.6438C23.2263 23.3599 21.6275 26.1308 20.1286 28.9563L20.0671 29.0671L12.4808 20.5002L14.4297 18.3544L19.107 22.8389L19.2178 22.6624C20.5504 20.5278 22.0455 18.4991 23.6899 16.5942C24.7909 15.3442 25.9651 14.1604 27.2061 13.0493C28.5191 11.8595 29.8867 10.7257 31.309 9.648L31.3952 9.57825C31.4814 9.86135 31.5634 10.1321 31.6414 10.3988C31.7439 10.7353 31.8424 11.0717 31.945 11.404C31.9556 11.4321 31.9679 11.4595 31.9819 11.4861V11.5476Z" fill="#CAC0C0"/>
<path d="M28.8617 13.1078C28.8325 13.1288 28.8051 13.1522 28.7797 13.1776C26.182 15.9655 23.8472 18.9871 21.8047 22.204C20.1061 24.9201 18.5074 27.6909 17.0084 30.5165L16.9469 30.6273L9.3606 22.0604L11.3095 19.9146L15.9868 24.399L16.0976 24.2226C17.4302 22.088 18.9253 20.0592 20.5697 18.1544C21.6708 16.9043 22.8449 15.7206 24.0859 14.6095C25.3989 13.4196 26.7665 12.2859 28.1889 11.2082L28.275 11.1384C28.3612 11.4215 28.4432 11.6923 28.5212 11.959C28.6238 12.2954 28.7222 12.6319 28.8248 12.9642C28.8354 12.9923 28.8477 13.0197 28.8617 13.0463V13.1078Z" fill="#BD1622"/>
</svg>
