<svg width="20" height="20" viewBox="0 0 20 20" fill="none" xmlns="http://www.w3.org/2000/svg">
<path d="M19.8617 2.10782C19.8325 2.12883 19.8051 2.15216 19.7797 2.17757C17.1821 4.96547 14.8472 7.98708 12.8047 11.204C11.1061 13.9201 9.50735 16.6909 8.00842 19.5165L7.94688 19.6273L0.360596 11.0604L2.30948 8.91455L6.9868 13.399L7.09758 13.2226C8.43019 11.088 9.92534 9.05924 11.5697 7.1544C12.6708 5.90434 13.8449 4.72063 15.0859 3.60949C16.3989 2.41965 17.7665 1.28588 19.1889 0.208177L19.275 0.138428C19.3612 0.421529 19.4432 0.692321 19.5212 0.95901C19.6238 1.29545 19.7222 1.63189 19.8248 1.96422C19.8354 1.99232 19.8477 2.01972 19.8617 2.04628V2.10782Z" fill="#BD1622"/>
</svg>
