<svg width="40" height="40" viewBox="0 0 40 40" fill="none" xmlns="http://www.w3.org/2000/svg">
<rect width="40" height="40" rx="5" fill="#ECECEC"/>
<path d="M31.9818 11.5475C31.9527 11.5685 31.9252 11.5919 31.8998 11.6173C29.3022 14.4052 26.9673 17.4268 24.9248 20.6437C23.2262 23.3598 21.6275 26.1306 20.1285 28.9562L20.067 29.0669L12.4807 20.5001L14.4296 18.3542L19.1069 22.8387L19.2177 22.6623C20.5503 20.5277 22.0455 18.4989 23.6899 16.5941C24.7909 15.344 25.965 14.1603 27.2061 13.0492C28.519 11.8593 29.8866 10.7256 31.309 9.64787L31.3951 9.57812C31.4813 9.86123 31.5634 10.132 31.6413 10.3987C31.7439 10.7351 31.8423 11.0716 31.9449 11.4039C31.9555 11.432 31.9678 11.4594 31.9818 11.486V11.5475Z" fill="white"/>
<path d="M28.8617 13.1078C28.8325 13.1288 28.8051 13.1522 28.7797 13.1776C26.1821 15.9655 23.8472 18.9871 21.8047 22.204C20.1061 24.9201 18.5074 27.6909 17.0084 30.5165L16.9469 30.6273L9.3606 22.0604L11.3095 19.9146L15.9868 24.399L16.0976 24.2226C17.4302 22.088 18.9253 20.0592 20.5697 18.1544C21.6708 16.9043 22.8449 15.7206 24.0859 14.6095C25.3989 13.4196 26.7665 12.2859 28.1889 11.2082L28.275 11.1384C28.3612 11.4215 28.4432 11.6923 28.5212 11.959C28.6238 12.2954 28.7222 12.6319 28.8248 12.9642C28.8354 12.9923 28.8477 13.0197 28.8617 13.0463V13.1078Z" fill="#BD1622"/>
</svg>
