<svg width="114" height="47" viewBox="0 0 114 47" fill="none" xmlns="http://www.w3.org/2000/svg">
<path d="M3.03693 46.1296C3.90626 44.6896 4.67131 43.1892 5.32618 41.6399C10.2454 27.6347 20.4821 18.3391 32.8594 11.2794C37.3379 8.87575 42.2675 7.42987 47.3348 7.0337C61.2872 5.63346 75.3674 7.77385 88.2734 13.257C92.1388 14.9716 95.691 17.3192 98.7839 20.2029C97.4317 20.0928 96.0737 20.0433 94.7305 19.8834C90.7755 19.4171 86.8315 18.7473 82.8579 18.4986C81.0576 18.4921 79.2735 18.8392 77.6069 19.5202C77.2409 19.7361 76.9348 20.0402 76.7164 20.4048C76.4981 20.7693 76.3746 21.1828 76.3571 21.6074C76.4704 22.0058 76.6832 22.369 76.9755 22.6626C77.2678 22.9562 77.6299 23.1706 78.0279 23.2857C88.1784 23.4196 97.7128 26.5154 107.436 28.6484C110.837 29.3951 112.562 28.4059 112.981 25.172C113.951 17.0502 113.144 8.81436 110.615 1.03557C110.539 0.775143 110.039 0.638842 109.164 0.105962C103.428 4.4163 107.46 10.7288 105.932 17.2108C105.019 16.2512 104.04 15.357 103.002 14.5347C84.4344 1.85587 63.7657 -1.67454 41.7903 1.18846C38.3846 1.70808 35.0827 2.76405 32.0075 4.3171C20.7623 9.61143 11.3874 18.192 5.1206 28.9257C3.08095 32.4583 2.09442 36.6484 0.979123 40.6405C0.537665 42.1488 1.07106 44.0075 1.15595 45.7032L3.03693 46.1296Z" fill="#1D1D1B"/>
</svg>
