<svg width="28" height="25" viewBox="0 0 28 25" fill="none" xmlns="http://www.w3.org/2000/svg">
<path d="M28.0001 18.9574C27.8405 19.3454 27.7378 19.7714 27.5083 20.1106C27.0433 20.8045 26.3316 21.1036 25.4981 21.1213C25.2529 21.1267 25.007 21.1213 24.7193 21.1213V21.3926C24.7193 22.0709 24.7152 22.7493 24.7193 23.4235C24.7228 23.7817 24.6296 24.0883 24.2926 24.2681C23.9557 24.4478 23.6242 24.3671 23.3166 24.1629C21.8571 23.199 20.3975 22.2256 18.9311 21.2658C18.7964 21.1802 18.6404 21.1333 18.4804 21.1301C15.9202 21.122 13.3593 21.126 10.7984 21.124C9.73957 21.124 8.92726 20.6872 8.46083 19.7307C8.32396 19.4273 8.24212 19.1024 8.21906 18.7709C8.17796 18.3232 8.19919 17.8694 8.21015 17.4183C8.21573 17.3723 8.23077 17.3279 8.25433 17.2879C8.27788 17.2479 8.30947 17.2131 8.34714 17.1856C8.77384 16.8933 9.20533 16.607 9.64505 16.3343C9.75578 16.2769 9.87972 16.2491 10.0046 16.2536C12.4285 16.2495 14.8531 16.2536 17.2771 16.2488C19.1229 16.2441 20.6544 15.1723 21.2153 13.4589C21.355 13.0117 21.4268 12.5465 21.4283 12.0785C21.4523 10.3277 21.4379 8.57624 21.4379 6.82547V6.51683C21.5379 6.51073 21.6167 6.50191 21.6954 6.50191C22.944 6.50191 24.1926 6.49377 25.4412 6.50191C26.4878 6.51005 27.2823 6.95639 27.7515 7.89859C27.8699 8.13668 27.9193 8.40869 28.0001 8.6651V18.9574Z" fill="white"/>
<path d="M3.28211 14.6255H2.5972C1.05614 14.6194 0.00342457 13.5829 0 12.058C0 9.13394 0 6.20966 0 3.28515C0 3.03214 0 2.78115 0 2.52678C0.0171229 1.05141 1.06573 0.0108533 2.55953 0.00406998C4.29099 0 6.02245 0 7.75392 0C10.8977 0 14.0417 0 17.1859 0C18.2537 0 19.0845 0.430061 19.5427 1.40347C19.7025 1.75663 19.7855 2.1391 19.7865 2.5261C19.805 5.71425 19.8016 8.89834 19.7954 12.0838C19.7954 13.5761 18.7352 14.6187 17.227 14.6214C14.7476 14.6268 12.2686 14.6257 9.79017 14.618C9.44411 14.6128 9.10528 14.7163 8.82239 14.9138C7.45804 15.83 6.08821 16.7385 4.7129 17.6393C4.56378 17.7419 4.39613 17.8151 4.21907 17.855C3.72251 17.9554 3.28759 17.5633 3.28759 17.0173C3.27663 16.2331 3.28211 15.449 3.28211 14.6255ZM9.87099 6.50112H14.4085C14.8455 6.50112 15.2832 6.51061 15.7202 6.49705C16.2551 6.48145 16.5811 6.0602 16.4804 5.53789C16.3921 5.0773 16.1202 4.87719 15.5722 4.87719C11.791 4.87719 8.00962 4.87719 4.22798 4.87719C4.14614 4.87504 4.06424 4.87798 3.98278 4.88601C3.82736 4.90015 3.68052 4.96293 3.56353 5.06526C3.44655 5.16758 3.36549 5.30413 3.33211 5.45513C3.19513 6.05952 3.5321 6.4984 4.15743 6.49976C6.06218 6.50383 7.96624 6.50112 9.87099 6.50112ZM7.42584 9.751C8.52787 9.751 9.63058 9.751 10.7326 9.751C11.173 9.751 11.46 9.53868 11.5442 9.17238C11.6812 8.56935 11.3429 8.13182 10.7169 8.12911C9.28676 8.12436 7.85597 8.12911 6.42587 8.12911C5.66082 8.12911 4.89508 8.12911 4.13004 8.12911C3.70539 8.12911 3.41909 8.34278 3.33416 8.69416C3.18554 9.30873 3.53005 9.74828 4.17318 9.75032C5.2574 9.75371 6.34162 9.751 7.42584 9.751Z" fill="white"/>
<rect x="2.59253" y="4.14819" width="14.5185" height="3.11111" fill="white"/>
<rect x="2.59253" y="7.77783" width="14.5185" height="3.11111" fill="white"/>
</svg>
