<svg width="70" height="70" viewBox="0 0 70 70" fill="none" xmlns="http://www.w3.org/2000/svg">
<path d="M62.1495 0H7.85047C3.51477 0 0 3.51477 0 7.85047V62.1495C0 66.4852 3.51477 70 7.85047 70H62.1495C66.4852 70 70 66.4852 70 62.1495V7.85047C70 3.51477 66.4852 0 62.1495 0Z" fill="#ECECEC"/>
<path d="M43.9749 62.5175C55.1529 62.5175 64.2144 53.456 64.2144 42.2781C64.2144 31.1001 55.1529 22.0386 43.9749 22.0386C32.7969 22.0386 23.7354 31.1001 23.7354 42.2781C23.7354 53.456 32.7969 62.5175 43.9749 62.5175Z" fill="white"/>
<path d="M46.0738 24.8326C46.251 25.112 46.4418 25.3778 46.619 25.6572C47.4665 26.9194 47.9922 28.3699 48.1502 29.8821C48.3081 31.3942 48.0936 32.922 47.5253 34.3322C46.7979 36.1035 46.3652 37.9819 46.2442 39.8929C46.2442 40.2337 46.2442 40.5744 46.2442 40.9083C46.2442 41.0242 46.2442 41.1468 46.2442 41.2627C46.3569 42.1662 46.6563 43.0365 47.1232 43.8182C47.2402 44.0528 47.4193 44.2508 47.6412 44.3906C47.7433 44.4783 47.8502 44.5602 47.9614 44.6359C49.0586 45.2629 50.2989 44.7654 50.4283 43.6478C50.4156 42.8408 50.2682 42.0416 49.9922 41.2831C49.485 39.9706 49.1595 38.595 49.0245 37.1944C49.069 35.9316 49.3487 34.6883 49.8491 33.5281C50.1699 35.2484 50.9385 36.8538 52.0775 38.1825C53.2632 39.4296 54.3808 39.8589 55.8187 41.0446C56.136 41.3443 56.4194 41.678 56.6637 42.0396C57.621 43.4172 58.2269 45.0081 58.4287 46.6735C58.9194 51.2393 57.2771 54.4422 53.236 57.1681C52.0512 57.9583 50.7622 58.5798 49.4061 59.0148C49.3459 59.0497 49.2792 59.072 49.21 59.0802C49.1409 59.0884 49.0708 59.0824 49.0041 59.0625C53.6585 55.846 54.4558 49.1063 50.5851 46.0057C50.7341 46.4438 50.7739 46.9116 50.7009 47.3686C50.5122 47.9521 50.1061 48.4405 49.5667 48.7323C49.0274 49.0242 48.3964 49.0971 47.8047 48.936C46.7761 48.7327 45.8548 48.1668 45.2083 47.3414C44.4747 46.4467 44.003 45.3664 43.8454 44.2202C43.7272 42.6286 43.9598 41.0305 44.5269 39.5386C43.6991 40.1142 43.0365 40.8966 42.6051 41.8079C42.2368 42.6165 41.991 43.4755 41.876 44.3565C41.6783 46.3123 42.0736 46.7144 42.2848 47.9683C42.4825 49.0791 43.0276 50.0127 42.9663 51.1098C42.9518 51.3199 42.8953 51.5249 42.8002 51.7127C42.7051 51.9006 42.5732 52.0674 42.4125 52.2034C42.2517 52.3394 42.0653 52.4417 41.8643 52.5044C41.6633 52.567 41.4518 52.5887 41.2422 52.5682C40.2268 52.5682 39.1978 50.8373 39.4704 50.0127C39.7421 48.9526 39.9087 47.8684 39.9679 46.7757C40.0941 44.9283 39.5895 43.0927 38.5368 41.5693C38.3801 43.0072 37.9984 45.6581 36.0631 47.7025C33.5962 50.7282 35.8109 55.662 39.4704 58.2584C39.852 58.5242 40.2541 58.7695 40.7243 59.0762C40.4023 59.0276 40.0883 58.9359 39.7907 58.8036C38.6429 58.3796 37.544 57.8335 36.5128 57.1749C36.4174 57.1135 36.3425 57.0113 36.1926 57.0113C36.1926 56.95 36.1517 56.9227 36.0972 56.8955C34.8946 56.0548 33.8263 55.037 32.9283 53.8766C31.7747 52.405 31.0111 50.666 30.7086 48.8207C30.406 46.9755 30.5741 45.0837 31.1974 43.3207C31.8555 41.0392 33.0494 38.9481 34.6797 37.2216C35.9949 35.7224 36.4856 34.8433 37.794 33.3236C39.5454 31.2792 40.5199 28.7783 40.4108 28.0423C40.8392 28.5103 41.1347 29.0845 41.2665 29.7052C41.3983 30.3259 41.3617 30.9705 41.1604 31.5723C41.0644 31.8369 40.987 32.1078 40.9287 32.3832C40.8129 33.0647 41.2558 33.4667 42.094 33.4259C42.5964 33.3785 43.077 33.1982 43.4866 32.9036C43.8962 32.609 44.22 32.2106 44.4246 31.7495C44.9481 30.8698 45.2192 29.8631 45.2083 28.8396C45.2423 26.915 44.8732 25.0046 44.1248 23.2311L44.0635 23.054C44.0635 23.054 44.0635 23.054 44.0635 22.9995C44.6942 23.4412 45.2706 23.9559 45.7808 24.5327C45.7808 24.5736 45.8421 24.6213 45.917 24.6145C45.917 24.669 45.9171 24.7099 46.0056 24.6963C45.9579 24.7781 46.0056 24.819 46.101 24.8462L46.0738 24.8326Z" fill="#BD1622"/>
<path d="M13.5134 54.2582H4.81795C3.80938 54.2582 3.65946 54.1423 3.70716 53.3587C3.70716 52.9907 3.76168 52.6159 3.76849 52.2479C3.76849 52.0911 3.84345 52.0298 4.04108 52.0434H11.8166C12.5866 52.0434 12.498 52.0434 12.498 51.5119V37.0717C12.5017 36.9207 12.4879 36.7698 12.4572 36.6219C12.4026 36.4311 12.2391 36.3834 12.021 36.4856C11.9347 36.5251 11.8526 36.5731 11.7757 36.6287C10.7058 37.4056 9.62908 38.1893 8.566 38.9729C8.2701 39.2327 7.88982 39.3759 7.4961 39.3759C7.10238 39.3759 6.72211 39.2327 6.4262 38.9729C5.4298 38.3271 4.63609 37.4129 4.13648 36.3357C3.67431 35.318 3.58036 34.1713 3.87071 33.0919C4.13648 32.1447 5.23364 31.1974 6.11954 30.5364C8.72728 28.6329 11.3327 26.727 13.9359 24.8189L30.2229 12.9478C31.4836 11.9938 32.7103 11.0602 34.0119 10.1538C36.2403 8.58646 40.1451 8.16395 42.905 10.1538L66.9062 27.94C67.0424 28.0423 67.1174 28.1581 66.9743 28.2263C66.8312 28.2944 66.3882 28.458 66.1429 28.5534C65.7497 28.6907 65.3493 28.8067 64.9435 28.9009C64.8115 28.9289 64.6751 28.9282 64.5434 28.8988C64.4117 28.8694 64.2878 28.812 64.1803 28.7305C63.7305 28.3966 63.2671 28.0491 62.8174 27.7424C61.6044 26.8497 60.405 25.9433 59.192 25.0166L53.7403 21.0027L49.7741 18.0724L44.3224 14.0314C43.3684 13.3499 42.4007 12.6344 41.4466 11.9393C40.6792 11.4282 39.7947 11.1201 38.8758 11.0438C37.957 10.9676 37.0338 11.1256 36.1926 11.5031C35.6033 11.8107 35.0403 12.1663 34.5093 12.5662C33.1941 13.5066 31.8993 14.4743 30.5977 15.4352L25.0097 19.524L20.6007 22.7473L15.0127 26.8361L10.6785 29.9844L7.27122 32.465C6.84787 32.7456 6.50121 33.1274 6.26265 33.5758C6.08466 33.9796 6.07242 34.4373 6.22858 34.8501C6.4427 35.5271 6.79286 36.1532 7.25759 36.69C7.41433 36.8672 7.51655 36.8877 7.73461 36.7309C9.39057 35.5043 11.0602 34.2981 12.7161 33.0715C12.8716 32.9413 13.0574 32.8525 13.2563 32.8132C13.4552 32.7739 13.6609 32.7854 13.8542 32.8466C14.0363 32.8808 14.2 32.9796 14.3151 33.1249C14.4303 33.2701 14.4892 33.4519 14.4811 33.6371C14.4811 37.3715 14.4993 41.1037 14.5356 44.8335C14.5356 46.435 14.5356 50.0263 14.5356 51.6482C14.5356 52.0094 14.5356 52.0162 15.0127 52.0162C20.0896 52.0162 14.4266 52.0162 19.5035 52.0162C20.1304 52.0162 20.771 52.0162 21.398 52.0162C21.6297 52.0162 21.6978 52.0639 21.6978 52.2411C21.6978 52.6772 21.7523 53.1065 21.7523 53.5426C21.7523 54.081 21.5547 54.2241 20.8596 54.2241H13.5134V54.2582Z" fill="#BD1622"/>
<path d="M29.303 58.1153C29.1118 58.1475 28.9154 58.1278 28.7344 58.0583C28.5535 57.9888 28.3944 57.8719 28.274 57.72C28.0917 57.5017 27.98 57.2332 27.9537 56.95C27.9367 56.7333 27.9717 56.5158 28.0559 56.3154C28.14 56.1151 28.2709 55.9378 28.4375 55.7983L59.3215 29.8277C59.4578 29.7092 59.6164 29.6191 59.7879 29.5625C59.9594 29.5058 60.1404 29.4838 60.3205 29.4978C60.5006 29.5117 60.6761 29.5613 60.8368 29.6437C60.9976 29.7261 61.1403 29.8396 61.2568 29.9776C61.3982 30.1752 61.4636 30.4172 61.4408 30.6591C61.4586 30.8751 61.4247 31.0924 61.3417 31.2927C61.2587 31.493 61.1292 31.6706 60.9638 31.8108L30.1003 57.795C29.876 57.9849 29.5963 58.0973 29.303 58.1153Z" fill="#BD1622"/>
</svg>
