<svg width="70" height="71" viewBox="0 0 70 71" fill="none" xmlns="http://www.w3.org/2000/svg">
<path d="M62.1291 0.443848H7.85047C3.51477 0.443848 0 3.95862 0 8.29431V62.5729C0 66.9086 3.51477 70.4234 7.85047 70.4234H62.1291C66.4648 70.4234 69.9796 66.9086 69.9796 62.5729V8.29431C69.9796 3.95862 66.4648 0.443848 62.1291 0.443848Z" fill="#ECECEC"/>
<path d="M34.7342 63.0636C50.0409 63.0636 62.4494 50.6551 62.4494 35.3485C62.4494 20.0418 50.0409 7.6333 34.7342 7.6333C19.4276 7.6333 7.01907 20.0418 7.01907 35.3485C7.01907 50.6551 19.4276 63.0636 34.7342 63.0636Z" fill="white"/>
<path d="M21.5138 32.5749C20.9073 32.6839 20.3621 32.7794 19.8101 32.8952C19.7181 32.9172 19.6377 32.9732 19.5853 33.0519C19.4422 33.2973 19.3195 33.5562 19.1832 33.8288C19.2241 33.9106 19.2854 33.9924 19.3263 34.0809C19.3856 34.1732 19.4239 34.2773 19.4385 34.386C19.4532 34.4947 19.4438 34.6053 19.411 34.7099C19.3783 34.8146 19.323 34.9108 19.249 34.9917C19.175 35.0727 19.0842 35.1364 18.9829 35.1784C18.8817 35.2205 18.7724 35.2398 18.6628 35.235C18.5533 35.2302 18.4461 35.2014 18.3489 35.1507C18.2517 35.1 18.1668 35.0285 18.1002 34.9414C18.0335 34.8543 17.9869 34.7537 17.9634 34.6466C17.9196 34.5577 17.8957 34.4604 17.8934 34.3613C17.891 34.2623 17.9103 34.1639 17.9499 34.0731C17.9895 33.9823 18.0484 33.9012 18.1225 33.8355C18.1966 33.7697 18.2842 33.7209 18.3791 33.6925C18.4712 33.6715 18.5543 33.622 18.6167 33.551C18.6791 33.4801 18.7175 33.3913 18.7266 33.2973C18.7266 33.1405 18.8152 32.9838 18.8561 32.8543L17.5409 32.241C17.4863 32.2187 17.4251 32.2187 17.3705 32.241C16.9412 32.5 16.5119 32.7521 16.103 33.0383C16.0144 33.0996 15.9871 33.2904 15.9803 33.4199C15.9793 33.6759 15.8973 33.9249 15.7462 34.1315C15.595 34.338 15.3824 34.4915 15.1387 34.5698C14.8951 34.6482 14.6329 34.6475 14.3896 34.5678C14.1464 34.4881 13.9346 34.3335 13.7846 34.1261C13.6345 33.9188 13.5539 33.6693 13.5543 33.4133C13.5547 33.1574 13.636 32.9081 13.7867 32.7012C13.9373 32.4942 14.1496 32.3403 14.393 32.2613C14.6365 32.1823 14.8987 32.1824 15.1421 32.2614C15.2104 32.2942 15.2877 32.3033 15.3618 32.2873C15.4358 32.2712 15.5024 32.231 15.551 32.1728C15.8577 31.8662 16.1779 31.5732 16.4982 31.2733C16.3551 31.0144 16.1984 30.7622 16.0825 30.5033C15.9667 30.2443 15.8781 29.9649 15.7691 29.6651C15.3534 29.6651 14.9104 29.7264 14.4743 29.7741C14.413 29.7741 14.3448 29.8831 14.3039 29.9581C14.2297 30.115 14.1165 30.2502 13.9752 30.3509C13.8339 30.4516 13.6691 30.5143 13.4966 30.5332C13.3241 30.5521 13.1496 30.5265 12.9899 30.4588C12.8301 30.3911 12.6903 30.2836 12.5839 30.1465C12.4775 30.0094 12.408 29.8473 12.3821 29.6758C12.3561 29.5042 12.3746 29.3288 12.4357 29.1664C12.4968 29.004 12.5985 28.8599 12.7311 28.748C12.8637 28.6361 13.0228 28.56 13.1931 28.527C13.3516 28.4878 13.5178 28.4924 13.6739 28.5404C13.83 28.5884 13.97 28.678 14.079 28.7996C14.1267 28.8589 14.1929 28.9005 14.267 28.9178C14.3411 28.9351 14.4189 28.927 14.4879 28.895C14.8286 28.786 15.1694 28.7178 15.5237 28.602C15.5749 28.5837 15.6212 28.5539 15.659 28.5149C15.6968 28.4759 15.7251 28.4288 15.7418 28.3771C15.8236 28.0704 15.8781 27.7501 15.9462 27.3958C15.4965 27.1436 15.0126 26.8711 14.5288 26.6121C14.4743 26.6121 14.3584 26.6121 14.2903 26.6598C14.1304 26.7746 13.9385 26.8364 13.7417 26.8364C13.5449 26.8364 13.353 26.7746 13.1931 26.6598C13.0263 26.559 12.8965 26.4071 12.8228 26.2266C12.7492 26.0462 12.7356 25.8468 12.7843 25.6581C12.8164 25.4684 12.9063 25.2933 13.0416 25.1567C13.177 25.0201 13.3513 24.9286 13.5407 24.8948C13.7818 24.8368 14.0361 24.8757 14.2489 25.0031C14.4617 25.1305 14.616 25.3363 14.6787 25.5763C14.6913 25.6599 14.7295 25.7376 14.7881 25.7987C14.8467 25.8597 14.9228 25.901 15.0058 25.917C15.4488 26.0465 15.8849 26.1964 16.3279 26.3327C16.3653 26.3499 16.406 26.3587 16.4471 26.3587C16.4883 26.3587 16.529 26.3499 16.5664 26.3327C16.9071 26.026 17.2478 25.6989 17.5886 25.3582C17.3909 25.0243 17.1797 24.6767 16.9071 24.2883C16.8662 24.2202 16.7095 24.1997 16.6005 24.1997C16.4006 24.1927 16.2073 24.1265 16.0452 24.0094C15.883 23.8924 15.7594 23.7297 15.6899 23.5422C15.6204 23.3547 15.6082 23.1507 15.6549 22.9563C15.7016 22.7618 15.8051 22.5856 15.9521 22.4501C16.0992 22.3146 16.2832 22.2258 16.4808 22.1951C16.6785 22.1645 16.8807 22.1932 17.062 22.2777C17.2432 22.3623 17.3952 22.4988 17.4987 22.6699C17.6022 22.8411 17.6524 23.0391 17.6431 23.2389C17.6431 23.2389 17.6431 23.3002 17.6431 23.3206C17.4455 23.6614 17.6431 23.8726 17.8748 24.0975C18.1065 24.3224 18.27 24.5404 18.4813 24.779C18.5115 24.8064 18.5471 24.8273 18.5858 24.8402C18.6245 24.8531 18.6655 24.8578 18.7062 24.8539C19.19 24.6154 19.6739 24.3565 20.1577 24.1043C20.0964 23.8726 20.035 23.6545 19.9873 23.4228C19.975 23.2898 19.9239 23.1634 19.8403 23.0592C19.7567 22.955 19.6443 22.8776 19.5171 22.8368C19.4126 22.7916 19.3188 22.7248 19.242 22.6406C19.1653 22.5565 19.1072 22.457 19.0718 22.3488C19.0364 22.2406 19.0243 22.126 19.0365 22.0128C19.0486 21.8995 19.0847 21.7902 19.1423 21.6919C19.194 21.5933 19.2646 21.5058 19.3502 21.4345C19.4358 21.3633 19.5347 21.3096 19.6411 21.2767C19.7474 21.2437 19.8593 21.2322 19.9702 21.2426C20.0811 21.2531 20.1888 21.2853 20.2872 21.3376C20.3893 21.3874 20.4799 21.458 20.5532 21.5448C20.6265 21.6316 20.6809 21.7327 20.713 21.8417C20.745 21.9507 20.754 22.0652 20.7394 22.1778C20.7247 22.2905 20.6868 22.3989 20.6279 22.4961C20.5776 22.5641 20.5504 22.6465 20.5504 22.7312C20.5504 22.8158 20.5776 22.8982 20.6279 22.9663C20.7506 23.1843 20.8528 23.4092 20.9823 23.6477L22.5905 22.8232C22.5019 22.5233 22.4202 22.2235 22.3179 21.9304C22.3179 21.8827 22.1953 21.8487 22.1203 21.8282C22.0232 21.7969 21.9333 21.7463 21.8563 21.6794C21.7792 21.6125 21.7165 21.5306 21.6718 21.4388C21.6272 21.347 21.6017 21.2471 21.5967 21.1452C21.5917 21.0432 21.6074 20.9413 21.6428 20.8456C21.6782 20.7499 21.7327 20.6623 21.8029 20.5882C21.873 20.5141 21.9575 20.4549 22.0511 20.4143C22.1448 20.3737 22.2456 20.3524 22.3477 20.3518C22.4498 20.3512 22.5509 20.3713 22.645 20.4108C22.7398 20.4544 22.8243 20.5174 22.8931 20.5958C22.9619 20.6742 23.0134 20.7663 23.0443 20.8659C23.0751 20.9656 23.0847 21.0706 23.0722 21.1742C23.0598 21.2777 23.0257 21.3775 22.9721 21.467C22.934 21.517 22.9134 21.578 22.9134 21.6408C22.9134 21.7036 22.934 21.7647 22.9721 21.8146C23.088 22.0122 23.1834 22.2235 23.2992 22.4415C23.7558 22.2167 24.2056 22.0054 24.6622 21.7601C24.7031 21.7601 24.7303 21.6579 24.7371 21.6033C24.7371 21.0377 24.8121 20.4721 24.8257 19.9065C24.8001 19.8014 24.734 19.7108 24.6417 19.6544C24.46 19.54 24.3192 19.3709 24.2396 19.1715C24.16 18.9721 24.1457 18.7526 24.1987 18.5445C24.2517 18.3364 24.3692 18.1505 24.5345 18.0134C24.6998 17.8764 24.9043 17.7952 25.1186 17.7817C25.3329 17.7681 25.5459 17.8229 25.7272 17.938C25.9084 18.0532 26.0485 18.2228 26.1272 18.4226C26.206 18.6223 26.2194 18.8419 26.1656 19.0497C26.1117 19.2576 25.9933 19.443 25.8275 19.5794C25.7673 19.6192 25.7207 19.6764 25.6939 19.7434C25.6671 19.8103 25.6614 19.8839 25.6776 19.9542C25.7184 20.2132 25.7525 20.4653 25.7934 20.7242C25.8343 20.9832 25.8752 21.2149 25.9024 21.4057L27.8582 21.7737C28.0422 21.5079 28.2807 21.1945 28.4852 20.8674C28.5254 20.7667 28.5254 20.6545 28.4852 20.5539C28.4395 20.44 28.4172 20.3181 28.4197 20.1954C28.4221 20.0727 28.4493 19.9518 28.4996 19.8398C28.5498 19.7279 28.6221 19.6272 28.7121 19.5438C28.8022 19.4604 28.9081 19.396 29.0235 19.3545C29.1383 19.3118 29.2606 19.2928 29.383 19.2987C29.5053 19.3046 29.6252 19.3352 29.7354 19.3887C29.8456 19.4422 29.9438 19.5175 30.0241 19.61C30.1043 19.7025 30.165 19.8103 30.2025 19.9269C30.2461 20.0485 30.2627 20.1782 30.2509 20.3068C30.2392 20.4354 30.1995 20.5599 30.1346 20.6716C30.0696 20.7833 29.9811 20.8794 29.8751 20.9532C29.7691 21.0271 29.6483 21.0768 29.521 21.0991C29.4278 21.106 29.3389 21.1409 29.2659 21.1993C29.193 21.2577 29.1394 21.3368 29.1121 21.4262C28.9895 21.7328 28.8395 22.0327 28.7101 22.3189L29.705 23.4637C30.1411 23.3411 30.6182 23.2048 31.0679 23.048C31.1361 23.048 31.1906 22.8913 31.2179 22.8027C31.2858 22.5775 31.4329 22.3844 31.632 22.2591C31.8312 22.1339 32.0689 22.0849 32.3014 22.1213C32.5192 22.1488 32.7208 22.2506 32.8722 22.4095C33.0237 22.5684 33.1157 22.7747 33.1328 22.9935C33.1589 23.2308 33.097 23.4695 32.9588 23.6642C32.8207 23.8589 32.6158 23.9961 32.3832 24.0498C32.2208 24.0834 32.0528 24.0781 31.8929 24.0343C31.733 23.9905 31.5857 23.9094 31.4632 23.7977L30.1957 24.4791C30.1651 24.4999 30.1395 24.5272 30.1207 24.559C30.1018 24.5908 30.0902 24.6263 30.0866 24.6631C30.0866 25.0038 30.182 25.3446 30.1752 25.6853C30.1506 26.0326 30.1073 26.3784 30.0457 26.7211C30.2502 26.8029 30.4682 26.8983 30.6931 26.9665C30.771 26.9753 30.8493 26.9533 30.9112 26.9051C30.9932 26.8412 31.0876 26.795 31.1885 26.7695C31.2893 26.744 31.3943 26.7398 31.4969 26.7571C31.5994 26.7744 31.6972 26.8129 31.7841 26.87C31.871 26.9272 31.9451 27.0018 32.0015 27.0891C32.0549 27.1738 32.0904 27.2685 32.1059 27.3674C32.1214 27.4663 32.1165 27.5673 32.0917 27.6643C32.0668 27.7612 32.0224 27.8521 31.9612 27.9313C31.9 28.0105 31.8233 28.0764 31.7358 28.125C31.6394 28.1774 31.5327 28.2081 31.4232 28.2148C31.3137 28.2215 31.2041 28.2041 31.1021 28.1638C31 28.1235 30.9081 28.0613 30.8327 27.9816C30.7573 27.9019 30.7004 27.8066 30.6659 27.7024C30.5982 27.6137 30.5019 27.5511 30.3933 27.5253C30.1886 27.4801 29.9815 27.446 29.7732 27.423L28.5806 28.786C28.8464 29.154 29.1394 29.5697 29.446 29.9785C29.4869 30.0331 29.6164 30.0467 29.6982 30.0399C29.9625 30.0064 30.2299 30.0702 30.4506 30.2194C30.6713 30.3686 30.8302 30.5931 30.8976 30.8508C30.9668 31.0982 30.9459 31.3622 30.8386 31.5956C30.7312 31.829 30.5444 32.0167 30.3115 32.1251C30.1282 32.2167 29.9221 32.2525 29.7187 32.2283C29.5152 32.2041 29.3233 32.1208 29.1666 31.9889C28.9973 31.8712 28.8692 31.7033 28.8007 31.5088C28.7322 31.3143 28.7267 31.1031 28.785 30.9053C28.8131 30.8288 28.8149 30.7451 28.7902 30.6674C28.7656 30.5897 28.7158 30.5224 28.6487 30.476C28.2944 30.1557 27.9673 29.7945 27.5925 29.4947C27.5549 29.4641 27.5107 29.4426 27.4634 29.432C27.4161 29.4213 27.367 29.4218 27.3199 29.4334C26.6929 29.74 26.0728 30.0671 25.4186 30.4079C25.623 30.8508 25.8207 31.2801 26.0387 31.7095C26.0387 31.764 26.1887 31.7912 26.2704 31.798C26.5422 31.8087 26.7987 31.9265 26.9838 32.1257C27.169 32.3249 27.2678 32.5893 27.2585 32.8611C27.2437 33.1079 27.1417 33.3413 26.9707 33.5198C26.7997 33.6983 26.5708 33.8102 26.3249 33.8356C26.0717 33.8714 25.8145 33.8076 25.6074 33.6576C25.4002 33.5076 25.2593 33.2832 25.2142 33.0315C25.2158 32.8249 25.241 32.6191 25.2891 32.4182C25.2891 32.3228 25.3232 32.2069 25.2891 32.1456C25.0165 31.7503 24.7303 31.3687 24.4305 30.9667C23.8512 31.2733 23.272 31.5595 22.7064 31.8662C22.6697 31.894 22.6401 31.9302 22.6199 31.9716C22.5998 32.013 22.5897 32.0586 22.5905 32.1047C22.6723 32.5885 22.7541 33.0656 22.8631 33.5426C22.8822 33.594 22.9122 33.6408 22.951 33.6796C22.9898 33.7184 23.0365 33.7484 23.088 33.7675C23.3088 33.8563 23.4935 34.0166 23.6124 34.2228C23.7313 34.4289 23.7776 34.6691 23.7438 34.9047C23.71 35.1403 23.5982 35.3577 23.4261 35.5222C23.2541 35.6867 23.0318 35.7887 22.795 35.8119C22.5484 35.821 22.3064 35.7436 22.111 35.593C21.9155 35.4423 21.779 35.2281 21.7251 34.9873C21.6853 34.8245 21.6856 34.6546 21.726 34.492C21.7663 34.3294 21.8455 34.179 21.9568 34.0537C21.9931 33.9811 22.0162 33.9027 22.0249 33.822C22.0173 33.7858 22.0034 33.7512 21.984 33.7198L21.5138 32.5749Z" fill="#BD1622"/>
<path d="M48.8474 38.4423C49.3594 38.8091 49.7678 39.3021 50.0331 39.8734C50.2512 39.812 50.4488 39.7643 50.6396 39.6894C50.6985 39.6406 50.7394 39.5734 50.7555 39.4986C50.7787 39.3637 50.844 39.2397 50.9422 39.1443C51.0403 39.0489 51.1661 38.9871 51.3015 38.9677C51.437 38.9482 51.5751 38.9722 51.696 39.0362C51.817 39.1001 51.9146 39.2008 51.9748 39.3236C52.035 39.4465 52.0547 39.5853 52.0311 39.7201C52.0076 39.8549 51.9419 39.9787 51.8435 40.0738C51.7452 40.169 51.6192 40.2305 51.4837 40.2496C51.3482 40.2686 51.2102 40.2443 51.0894 40.18C50.9993 40.146 50.9 40.146 50.81 40.18C50.626 40.2754 50.4556 40.3913 50.3125 40.4799V42.0881C50.7009 42.1835 51.1439 42.2994 51.5937 42.3948C51.6482 42.3948 51.7368 42.3198 51.7913 42.2585C51.9309 42.1156 52.1116 42.0197 52.3083 41.9843C52.5049 41.9489 52.7077 41.9756 52.8884 42.0609C53.0649 42.1427 53.2118 42.2768 53.3093 42.4451C53.4069 42.6133 53.4503 42.8075 53.4336 43.0013C53.4211 43.1968 53.3491 43.3839 53.2273 43.5373C53.1055 43.6908 52.9397 43.8034 52.7521 43.8599C52.5347 43.9212 52.3029 43.9067 52.0949 43.8188C51.8868 43.7308 51.7148 43.5747 51.6073 43.3761C51.5842 43.3352 51.5518 43.3004 51.5127 43.2744C51.4736 43.2483 51.429 43.2318 51.3824 43.2262C50.9394 43.1921 50.4965 43.1717 50.0195 43.158C49.98 43.1593 49.9413 43.169 49.906 43.1867C49.8707 43.2043 49.8397 43.2294 49.815 43.2602C49.5697 43.8327 49.338 44.4119 49.0995 44.998C49.4879 45.1752 49.8491 45.3455 50.2239 45.4954C50.2852 45.4954 50.4011 45.4955 50.4761 45.4273C50.619 45.3259 50.7889 45.2692 50.9641 45.2643C51.1394 45.2595 51.3121 45.3068 51.4605 45.4001C51.6088 45.4935 51.7262 45.6288 51.7976 45.7889C51.869 45.949 51.8914 46.1267 51.8618 46.2995C51.8322 46.4722 51.752 46.6324 51.6313 46.7596C51.5107 46.8867 51.355 46.9753 51.1841 47.014C51.0131 47.0526 50.8345 47.0397 50.6708 46.9769C50.5072 46.914 50.3659 46.804 50.2648 46.6608C50.2648 46.6199 50.1967 46.579 50.1967 46.5381C50.1967 46.2451 49.965 46.1769 49.7196 46.136C49.4743 46.0951 49.0382 45.9929 48.7315 45.9111L48.05 47.6148C48.4317 47.9283 48.8133 48.2417 49.2017 48.5416C49.263 48.5825 49.3993 48.5416 49.4879 48.5416C49.705 48.4692 49.9409 48.4784 50.1517 48.5674C50.3624 48.6565 50.5335 48.8193 50.6328 49.0254C50.7284 49.2264 50.748 49.4552 50.6879 49.6695C50.6277 49.8837 50.4919 50.0689 50.3057 50.1907C50.1678 50.2772 50.0084 50.3231 49.8457 50.3231C49.683 50.3231 49.5235 50.2772 49.3857 50.1907C49.2377 50.1224 49.1126 50.0127 49.0256 49.8748C48.9385 49.737 48.8932 49.5769 48.8951 49.4139C48.9035 49.3521 48.8905 49.2894 48.8582 49.2361C48.826 49.1827 48.7764 49.1421 48.7179 49.1208C48.384 48.9573 48.0364 48.7733 47.7229 48.6029L46.7553 49.7887C46.7553 49.7887 46.6871 49.8773 46.6939 49.9113C46.7484 50.1839 46.8098 50.4633 46.8847 50.7359C46.8847 50.7768 46.987 50.7972 47.0483 50.8177C47.1525 50.8326 47.2518 50.8715 47.3384 50.9313C47.4251 50.9911 47.4967 51.0701 47.5477 51.1622C47.5986 51.2543 47.6276 51.357 47.6322 51.4621C47.6369 51.5673 47.6171 51.6721 47.5744 51.7683C47.5318 51.8646 47.4674 51.9496 47.3864 52.0168C47.3054 52.084 47.2099 52.1315 47.1074 52.1556C47.005 52.1797 46.8983 52.1797 46.7958 52.1557C46.6933 52.1316 46.5978 52.0842 46.5167 52.0171C46.4378 51.9761 46.3682 51.9192 46.3124 51.8499C46.2567 51.7806 46.216 51.7004 46.1929 51.6145C46.1698 51.5286 46.1649 51.4389 46.1784 51.3509C46.1919 51.263 46.2236 51.1789 46.2714 51.1039C46.3078 51.0469 46.3272 50.9807 46.3272 50.9131C46.3272 50.8455 46.3078 50.7793 46.2714 50.7223C46.1965 50.5792 46.1283 50.4361 46.0602 50.2861C45.6445 50.4088 45.256 50.5247 44.8676 50.6541C44.8402 50.668 44.8159 50.6872 44.796 50.7106C44.7761 50.734 44.7611 50.7612 44.7518 50.7904C44.6018 51.2402 44.4655 51.6968 44.3224 52.1534C44.517 52.3038 44.6565 52.5142 44.7194 52.752C44.7822 52.9898 44.7648 53.2417 44.67 53.4686C44.5996 53.6284 44.491 53.7684 44.3536 53.8762C44.2163 53.984 44.0546 54.0564 43.8827 54.0868C43.7107 54.1173 43.534 54.105 43.3679 54.0509C43.2019 53.9969 43.0518 53.9028 42.9308 53.7769C42.8098 53.6511 42.7216 53.4973 42.6741 53.3293C42.6266 53.1613 42.6212 52.9842 42.6584 52.8136C42.6956 52.643 42.7742 52.4842 42.8874 52.3512C43.0005 52.2183 43.1446 52.1152 43.307 52.0511C43.3705 52.0316 43.4256 51.9915 43.4639 51.9373C43.5021 51.883 43.5212 51.8176 43.5183 51.7513C43.5183 51.4242 43.5796 51.0698 43.6273 50.77C43.6273 50.6473 43.6273 50.6064 43.491 50.5655C43.0754 50.3952 42.6597 50.2112 42.2099 50.0136C41.985 50.2316 41.7124 50.4906 41.4535 50.7632C41.422 50.8396 41.422 50.9253 41.4535 51.0017C41.5056 51.2113 41.4806 51.4327 41.383 51.6253C41.2854 51.818 41.1218 51.9692 40.9219 52.0511C40.7195 52.1393 40.491 52.1468 40.2833 52.0721C40.0755 51.9973 39.9042 51.846 39.8043 51.6491C39.7276 51.519 39.6871 51.3708 39.6871 51.2197C39.6871 51.0687 39.7276 50.9205 39.8043 50.7904C39.879 50.6488 39.9939 50.5325 40.1346 50.4561C40.2753 50.3797 40.4354 50.3467 40.5948 50.3611C40.667 50.3768 40.7424 50.367 40.8082 50.3335C40.874 50.3 40.9262 50.2447 40.956 50.1771C41.1468 49.8636 41.3649 49.5706 41.5557 49.2844L41.065 48.3712C40.6085 48.4666 40.1382 48.5552 39.7021 48.6643C39.6408 48.6643 39.5931 48.7937 39.5658 48.8687C39.4988 49.0528 39.3708 49.2085 39.2031 49.3099C39.0354 49.4113 38.838 49.4522 38.6438 49.426C38.4496 49.3997 38.2703 49.3078 38.1355 49.1655C38.0008 49.0232 37.9187 48.8392 37.903 48.6438C37.8856 48.4404 37.9412 48.2375 38.0598 48.0714C38.1785 47.9053 38.3524 47.7869 38.5504 47.7375C38.6678 47.7076 38.7906 47.7056 38.9089 47.7316C39.0273 47.7576 39.1379 47.811 39.2319 47.8874C39.2788 47.9313 39.3385 47.9589 39.4023 47.9663C39.4661 47.9736 39.5306 47.9603 39.5863 47.9283L40.2677 47.6557L40.8879 47.3967L41.0514 46.0338C40.7175 45.9248 40.3699 45.7953 39.9951 45.6931C39.9338 45.6931 39.8248 45.7408 39.7634 45.7953C39.6732 45.8708 39.5689 45.9277 39.4566 45.9627C39.3443 45.9978 39.2262 46.0103 39.109 45.9995C38.9918 45.9887 38.878 45.9549 38.7739 45.9C38.6699 45.8451 38.5777 45.7701 38.5027 45.6794C38.4214 45.5808 38.3624 45.4657 38.3297 45.3421C38.2971 45.2185 38.2916 45.0892 38.3136 44.9633C38.3357 44.8374 38.3847 44.7177 38.4573 44.6125C38.53 44.5073 38.6246 44.419 38.7346 44.3538C38.8445 44.2886 38.9673 44.248 39.0945 44.2348C39.2217 44.2215 39.3502 44.236 39.4713 44.2771C39.5923 44.3182 39.7031 44.3851 39.7958 44.473C39.8886 44.561 39.9613 44.668 40.0088 44.7867C40.0241 44.8431 40.058 44.8926 40.105 44.9272C40.152 44.9618 40.2094 44.9796 40.2677 44.9775C40.6085 45.0184 40.9492 45.0729 41.2967 45.107C41.336 45.1086 41.375 45.1008 41.4106 45.0842C41.4461 45.0676 41.4772 45.0427 41.5012 45.0116C41.6852 44.5823 41.8555 44.1461 42.0327 43.7032C41.7806 43.5328 41.5421 43.3488 41.2831 43.2057C41.2013 43.158 41.0582 43.2057 40.956 43.2057C40.8096 43.2568 40.6507 43.2599 40.5024 43.2146C40.3542 43.1693 40.2242 43.0778 40.1314 42.9536C40.0434 42.8373 39.9916 42.6977 39.9824 42.5522C39.9731 42.4066 40.007 42.2616 40.0797 42.1351C40.1523 42.0087 40.2606 41.9064 40.391 41.8411C40.5214 41.7758 40.6681 41.7503 40.8129 41.7678C40.9641 41.7829 41.1059 41.8482 41.2158 41.9531C41.3257 42.0581 41.3974 42.1967 41.4194 42.3471C41.4221 42.4223 41.4496 42.4946 41.4977 42.5525C41.5458 42.6105 41.6117 42.6509 41.6852 42.6674L42.244 42.8991H42.3189L42.9322 41.5498L42.6051 41.3317C42.3939 41.2022 42.2303 41.0387 41.9237 41.1818C41.8398 41.2072 41.7515 41.2144 41.6647 41.2028C41.5779 41.1912 41.4945 41.1612 41.4202 41.1147C41.346 41.0682 41.2826 41.0063 41.2342 40.9333C41.1859 40.8602 41.1537 40.7776 41.14 40.6911C41.1093 40.519 41.146 40.3417 41.2423 40.1958C41.3387 40.0499 41.4875 39.9467 41.6579 39.9074C41.8349 39.8756 42.0174 39.915 42.1655 40.0171C42.3136 40.1193 42.4153 40.2758 42.4484 40.4526C42.4576 40.4909 42.4744 40.5269 42.4978 40.5585C42.5213 40.5901 42.5508 40.6167 42.5847 40.6366C42.787 40.7312 42.9939 40.8154 43.2048 40.8888C43.3752 40.4799 43.5524 40.0846 43.7159 39.6826C43.7159 39.6417 43.7159 39.5599 43.6614 39.519C43.3752 39.1306 43.0754 38.749 42.7755 38.3673C42.7463 38.3404 42.7119 38.3198 42.6744 38.3069C42.6368 38.294 42.597 38.2891 42.5574 38.2924C42.3362 38.3312 42.1084 38.2864 41.9183 38.1668C41.7282 38.0472 41.5892 37.8612 41.5284 37.645C41.4775 37.4346 41.5047 37.2129 41.6049 37.0211C41.7052 36.8293 41.8718 36.6805 42.0736 36.6023C42.1786 36.5579 42.2915 36.5348 42.4055 36.5344C42.5195 36.5341 42.6325 36.5564 42.7378 36.6002C42.8431 36.644 42.9387 36.7083 43.0189 36.7894C43.099 36.8705 43.1623 36.9668 43.2048 37.0726C43.2451 37.2513 43.2611 37.4347 43.2525 37.6177C43.2525 37.6927 43.2525 37.7881 43.2934 37.829C43.6137 38.122 43.9749 38.4082 44.2747 38.6944L44.3429 38.7421L45.8421 37.8767C45.8421 37.6041 45.8012 37.2702 45.7603 36.9363C45.7263 36.8439 45.658 36.7682 45.5695 36.725C45.415 36.6505 45.2888 36.5278 45.2102 36.3754C45.1315 36.223 45.1045 36.0491 45.1334 35.88C45.1553 35.7188 45.2261 35.5682 45.3361 35.4484C45.4461 35.3286 45.5902 35.2453 45.7489 35.2097C45.9076 35.1741 46.0734 35.1879 46.2241 35.2492C46.3747 35.3106 46.503 35.4165 46.5917 35.5529C46.6932 35.7058 46.7404 35.8884 46.7255 36.0713C46.7107 36.2543 46.6348 36.4269 46.5099 36.5615C46.4537 36.6456 46.4295 36.7472 46.4418 36.8477C46.4963 37.1203 46.5917 37.3792 46.6599 37.645C46.6599 37.7676 46.7416 37.8017 46.8779 37.8153C47.1988 37.8453 47.5174 37.8954 47.832 37.9653C47.8792 37.9821 47.931 37.981 47.9775 37.9622C48.024 37.9433 48.0619 37.9081 48.0841 37.8631C48.2681 37.57 48.4725 37.2838 48.6497 36.984C48.67 36.9366 48.6804 36.8856 48.6804 36.834C48.6804 36.7825 48.67 36.7315 48.6497 36.6841C48.5516 36.4823 48.5343 36.2506 48.6014 36.0365C48.6686 35.8224 48.8151 35.642 49.0109 35.5324C49.2115 35.4231 49.4474 35.3979 49.6665 35.4625C49.8857 35.527 50.0703 35.676 50.1796 35.8766C50.289 36.0772 50.3141 36.313 50.2496 36.5322C50.1851 36.7514 50.0361 36.9359 49.8355 37.0453C49.7509 37.097 49.655 37.1274 49.5561 37.1339C49.3925 37.1339 49.3244 37.2157 49.2699 37.3588C49.1472 37.7131 48.9973 38.0675 48.8474 38.4423Z" fill="#BD1622"/>
<path d="M33.5212 52.1397C33.5199 53.2056 33.2026 54.2471 32.6095 55.1326C32.0163 56.0182 31.174 56.708 30.1889 57.1149C29.2038 57.5219 28.1202 57.6277 27.075 57.4189C26.0299 57.2101 25.07 56.6962 24.3168 55.9421C23.5637 55.188 23.051 54.2275 22.8435 53.182C22.6361 52.1366 22.7432 51.0531 23.1514 50.0686C23.5596 49.084 24.2505 48.2425 25.1368 47.6505C26.0231 47.0585 27.065 46.7426 28.1308 46.7426C29.5523 46.7722 30.9073 47.3506 31.912 48.3566C32.9167 49.3626 33.4934 50.7182 33.5212 52.1397ZM28.1308 47.9147C27.2961 47.916 26.4804 48.1646 25.7868 48.6291C25.0932 49.0936 24.5527 49.7531 24.2335 50.5245C23.9144 51.2958 23.8309 52.1444 23.9936 52.9632C24.1563 53.782 24.5579 54.5342 25.1477 55.1249C25.7375 55.7157 26.4891 56.1185 27.3076 56.2825C28.126 56.4465 28.9748 56.3644 29.7467 56.0465C30.5185 55.7286 31.1789 55.1891 31.6445 54.4963C32.1101 53.8034 32.36 52.9881 32.3627 52.1534C32.3767 51.5935 32.2769 51.0366 32.0692 50.5165C31.8616 49.9963 31.5505 49.5238 31.1548 49.1274C30.7591 48.7311 30.2871 48.4193 29.7673 48.2108C29.2474 48.0023 28.6907 47.9016 28.1308 47.9147Z" fill="#BD1622"/>
<path d="M54.1219 26.837C53.4694 26.837 52.8437 27.0962 52.3824 27.5575C51.921 28.0189 51.6618 28.6446 51.6618 29.2971C51.6618 29.9495 51.921 30.5752 52.3824 31.0366C52.8437 31.498 53.4694 31.7571 54.1219 31.7571C54.7743 31.7571 55.4001 31.498 55.8614 31.0366C56.3228 30.5752 56.582 29.9495 56.582 29.2971C56.582 28.6446 56.3228 28.0189 55.8614 27.5575C55.4001 27.0962 54.7743 26.837 54.1219 26.837ZM54.6125 30.9871C54.3942 30.9871 54.1808 30.9223 53.9992 30.801C53.8177 30.6797 53.6762 30.5073 53.5926 30.3056C53.5091 30.1039 53.4872 29.8819 53.5298 29.6677C53.5724 29.4536 53.6775 29.2569 53.8319 29.1025C53.9863 28.9481 54.183 28.843 54.3972 28.8004C54.6113 28.7578 54.8333 28.7796 55.035 28.8632C55.2367 28.9467 55.4092 29.0882 55.5305 29.2698C55.6518 29.4513 55.7165 29.6648 55.7165 29.8831C55.7244 30.0302 55.7012 30.1772 55.6485 30.3147C55.5958 30.4522 55.5148 30.5771 55.4106 30.6812C55.3065 30.7853 55.1816 30.8664 55.0441 30.9191C54.9066 30.9718 54.7596 30.995 54.6125 30.9871Z" fill="#BD1622"/>
<path d="M28.9827 50.3611C29.2041 50.3575 29.4241 50.3983 29.6295 50.4811C29.8349 50.564 30.0217 50.6872 30.1786 50.8435C30.3356 50.9999 30.4595 51.1861 30.5432 51.3912C30.6269 51.5962 30.6686 51.816 30.6659 52.0375C30.6623 52.4804 30.4843 52.904 30.1705 53.2165C29.8567 53.5291 29.4324 53.7053 28.9895 53.7071C28.5459 53.6983 28.1233 53.5167 27.8115 53.2011C27.4997 52.8855 27.3233 52.4607 27.3199 52.0171C27.3235 51.5778 27.5 51.1577 27.8113 50.8477C28.1225 50.5377 28.5434 50.3629 28.9827 50.3611Z" fill="#BD1622"/>
<path d="M39.5249 13.3917C40.6766 13.4245 41.7717 13.898 42.5845 14.7146C43.3972 15.5312 43.8656 16.6285 43.8931 17.7803C43.9164 18.3698 43.8203 18.9579 43.6108 19.5094C43.4012 20.061 43.0825 20.5645 42.6736 20.9898C42.2647 21.4151 41.7742 21.7535 41.2314 21.9846C40.6886 22.2157 40.1047 22.3349 39.5147 22.3349C38.9247 22.3349 38.3408 22.2157 37.798 21.9846C37.2552 21.7535 36.7647 21.4151 36.3558 20.9898C35.9469 20.5645 35.6282 20.061 35.4186 19.5094C35.209 18.9579 35.113 18.3698 35.1363 17.7803C35.1623 16.6245 35.633 15.5233 36.4505 14.7059C37.2679 13.8884 38.3691 13.4177 39.5249 13.3917ZM42.6324 17.7667C42.6257 17.1503 42.4365 16.5497 42.0889 16.0407C41.7413 15.5316 41.2507 15.1369 40.6791 14.9063C40.1074 14.6757 39.4803 14.6195 38.8767 14.7449C38.2732 14.8702 37.7203 15.1715 37.2878 15.6107C36.8552 16.0499 36.5624 16.6073 36.4463 17.2127C36.3301 17.818 36.3958 18.4443 36.6351 19.0123C36.8744 19.5804 37.2765 20.0649 37.7908 20.4047C38.3051 20.7446 38.9085 20.9245 39.5249 20.9218C39.9393 20.9351 40.3519 20.8633 40.7374 20.7108C41.1229 20.5582 41.473 20.3283 41.7662 20.0352C42.0593 19.742 42.2892 19.3919 42.4417 19.0064C42.5942 18.6209 42.6661 18.2083 42.6528 17.7939L42.6324 17.7667Z" fill="#BD1622"/>
<path d="M41.0582 17.6849C41.0582 17.944 40.9813 18.1972 40.8372 18.4125C40.6932 18.6278 40.4884 18.7955 40.2489 18.8943C40.0095 18.9932 39.746 19.0187 39.492 18.9676C39.2381 18.9166 39.0049 18.7913 38.8222 18.6076C38.6395 18.424 38.5154 18.1902 38.4657 17.9359C38.416 17.6817 38.4429 17.4184 38.543 17.1794C38.643 16.9405 38.8118 16.7366 39.0279 16.5937C39.2439 16.4507 39.4976 16.3751 39.7566 16.3765C39.9286 16.3746 40.0993 16.4073 40.2585 16.4725C40.4177 16.5376 40.5622 16.6341 40.6835 16.756C40.8049 16.878 40.9005 17.023 40.9649 17.1825C41.0292 17.3421 41.061 17.5129 41.0582 17.6849Z" fill="#BD1622"/>
<path d="M11.4759 54.6611C11.2091 54.6613 10.9487 54.58 10.7295 54.4281C10.5103 54.2761 10.3427 54.0608 10.2493 53.8109C10.1559 53.5611 10.1411 53.2887 10.2068 53.0302C10.2726 52.7717 10.4158 52.5394 10.6172 52.3646L55.4303 13.4598C55.6924 13.2321 56.0342 13.1178 56.3805 13.1421C56.7268 13.1663 57.0493 13.3272 57.2771 13.5893C57.5048 13.8513 57.6191 14.1931 57.5948 14.5395C57.5705 14.8858 57.4096 15.2083 57.1476 15.436L12.3345 54.3408C12.0963 54.5476 11.7913 54.6614 11.4759 54.6611Z" fill="#BD1622"/>
</svg>
