<svg width="70" height="71" viewBox="0 0 70 71" fill="none" xmlns="http://www.w3.org/2000/svg">
<path d="M62.1495 0.867188H7.85047C3.51477 0.867188 0 4.38196 0 8.71766V63.0167C0 67.3524 3.51477 70.8672 7.85047 70.8672H62.1495C66.4852 70.8672 70 67.3524 70 63.0167V8.71766C70 4.38196 66.4852 0.867188 62.1495 0.867188Z" fill="#ECECEC"/>
<path d="M62.7288 37.3391C62.7288 52.195 50.3125 64.2433 35 64.2433C19.6875 64.2433 7.27805 52.195 7.27805 37.3391C7.27805 22.4832 19.6875 10.4077 35 10.4077C50.3125 10.4077 62.7288 22.4832 62.7288 37.3391Z" fill="white"/>
<path d="M32.206 44.6785C31.5979 44.0265 30.8331 43.5409 29.9844 43.2679C28.6254 42.813 27.1846 42.655 25.7593 42.8045L25.4254 42.8386L24.9893 42.8795V38.7225C24.9893 35.6014 24.9893 32.478 24.9893 29.3524C24.9998 28.5931 24.7137 27.8597 24.192 27.308C23.5736 26.6625 22.7953 26.1923 21.9363 25.9451C20.1575 25.3681 18.2572 25.274 16.4301 25.6725C15.3394 25.852 14.3176 26.3229 13.4725 27.0354C13.1391 27.3064 12.87 27.6481 12.685 28.0359C12.4999 28.4237 12.4035 28.8478 12.4026 29.2774V48.1404C12.3991 48.7201 12.5806 49.2858 12.9205 49.7554C13.4074 50.4411 14.0784 50.975 14.8559 51.2955C16.3393 51.9033 17.9493 52.1373 19.5444 51.977L19.9873 51.9293L20.3894 51.8884V52.8697C20.3712 53.5643 20.6144 54.2403 21.0709 54.7642C21.6746 55.4419 22.4523 55.9415 23.3197 56.2089C25.0484 56.7918 26.8993 56.9139 28.6896 56.5633C29.7259 56.4034 30.7093 55.9993 31.5586 55.3843C31.9852 55.1105 32.337 54.7347 32.582 54.291C32.8271 53.8472 32.9579 53.3494 32.9624 52.8425V46.6207C32.9681 45.9004 32.6974 45.2052 32.206 44.6785ZM14.3107 28.0644C14.8565 27.5918 15.5053 27.2534 16.2052 27.0763C17.0231 26.8586 17.8667 26.7532 18.713 26.7628C19.8564 26.7371 20.9909 26.97 22.0317 27.4443C22.4297 27.6363 22.7953 27.8892 23.1153 28.1939C23.2682 28.3263 23.3909 28.4901 23.475 28.6741C23.5591 28.8581 23.6026 29.0581 23.6026 29.2604C23.6026 29.4627 23.5591 29.6627 23.475 29.8467C23.3909 30.0307 23.2682 30.1945 23.1153 30.3269C22.6756 30.7598 22.1379 31.0801 21.5479 31.2605C20.6167 31.5748 19.6413 31.7382 18.6585 31.7443C17.6036 31.7388 16.5582 31.545 15.5714 31.1719C15.0998 31.0043 14.6698 30.737 14.3107 30.3882C14.1338 30.2506 13.9906 30.0744 13.8921 29.873C13.7937 29.6717 13.7425 29.4505 13.7425 29.2263C13.7425 29.0022 13.7937 28.781 13.8921 28.5796C13.9906 28.3782 14.1338 28.202 14.3107 28.0644ZM23.5241 35.9013C23.3921 36.309 23.1284 36.6613 22.7745 36.903C22.1813 37.3386 21.4997 37.6387 20.7778 37.7821C20.0643 37.9425 19.3353 38.0248 18.604 38.0274C17.6048 38.0227 16.6139 37.8475 15.6737 37.5095C15.1417 37.3256 14.6574 37.0253 14.2562 36.6304C13.9846 36.3824 13.8146 36.0425 13.7792 35.6764C13.7651 35.5541 13.7651 35.4306 13.7792 35.3084V35.1653V35.0154L13.9223 35.0835C15.3815 35.8205 16.9898 36.2144 18.6244 36.2352C20.2442 36.2131 21.8379 35.824 23.2856 35.0971L23.3742 35.0562L23.4287 35.1312C23.5029 35.2434 23.5512 35.3707 23.57 35.5039C23.5889 35.6371 23.5779 35.7729 23.5378 35.9013H23.5241ZM23.4764 39.1927C23.3182 39.5661 23.0525 39.8839 22.7132 40.1059C22.0117 40.5865 21.2101 40.9011 20.369 41.0259C19.7861 41.1276 19.1956 41.18 18.604 41.1826C17.6322 41.1839 16.6672 41.0226 15.7486 40.7056C15.1779 40.5236 14.6576 40.2109 14.229 39.7924C13.945 39.5359 13.7716 39.1792 13.7451 38.7975C13.7317 38.6775 13.7317 38.5563 13.7451 38.4363C13.7451 38.3818 13.7451 38.3205 13.7792 38.2591V38.0956L13.9223 38.1842C15.3377 39.0113 16.9587 39.4201 18.5971 39.3631C20.2199 39.4196 21.8258 39.0182 23.2311 38.2046L23.3265 38.1501L23.3878 38.2455C23.4794 38.3837 23.5365 38.5418 23.5543 38.7067C23.5721 38.8715 23.5501 39.0382 23.4901 39.1927H23.4764ZM23.5241 32.7461C23.3944 33.155 23.1303 33.508 22.7745 33.7478C22.1832 34.1823 21.5041 34.4824 20.7846 34.6269C20.0687 34.7867 19.3376 34.869 18.604 34.8722C17.6043 34.8675 16.6129 34.69 15.6737 34.3475C15.1134 34.1634 14.6092 33.8398 14.2085 33.4071C14.0357 33.239 13.9106 33.028 13.846 32.7958C13.7813 32.5635 13.7795 32.3183 13.8405 32.0851V32.051C13.8466 32.0227 13.862 31.9972 13.8842 31.9787C13.9065 31.9602 13.9343 31.9496 13.9632 31.9488H14.0245C15.467 32.6684 17.0534 33.0528 18.6653 33.0732C20.2876 33.0538 21.8841 32.6646 23.3333 31.9351L23.4219 31.8942L23.4696 31.9692C23.54 32.0847 23.5827 32.2149 23.5945 32.3497C23.6064 32.4844 23.5869 32.6201 23.5378 32.7461H23.5241ZM20.1168 50.2665L20.0623 50.3006H19.6125C19.1439 50.3495 18.6731 50.3746 18.2019 50.3756C17.1963 50.3609 16.2059 50.1284 15.2989 49.6941C14.8438 49.505 14.4499 49.1936 14.1608 48.7946C14.0654 48.6663 14.0026 48.5169 13.9777 48.359C13.9528 48.2012 13.9665 48.0396 14.0177 47.8882C15.4085 48.6601 16.9796 49.0482 18.5699 49.0126C19.1049 49.0119 19.6395 48.9823 20.1713 48.924V49.108C20.1713 49.5169 20.1713 49.8917 20.1577 50.2665H20.1168ZM20.4439 45.9869C20.4439 46.3617 20.3962 46.7434 20.369 47.1182C20.3587 47.1755 20.3319 47.2285 20.292 47.2709C20.2521 47.3132 20.2007 47.343 20.1441 47.3567C19.6145 47.4422 19.079 47.4854 18.5426 47.4862C17.4003 47.4998 16.2684 47.2674 15.2239 46.8047C14.795 46.6223 14.4146 46.3423 14.1131 45.9869C13.9382 45.8121 13.817 45.5908 13.7639 45.3493C13.7107 45.1078 13.7279 44.8561 13.8133 44.624C13.8188 44.6008 13.8306 44.5796 13.8473 44.5627L13.9223 44.4468L14.0177 44.5013C15.9441 45.5631 18.1781 45.9266 20.3417 45.5303H20.478L20.4439 45.9869ZM20.369 44.1742C19.7867 44.2814 19.196 44.3362 18.604 44.3378C17.6322 44.3391 16.6672 44.1778 15.7486 43.8608C15.1779 43.6787 14.6576 43.3661 14.229 42.9476C13.945 42.691 13.7716 42.3344 13.7451 41.9527C13.7304 41.835 13.7304 41.716 13.7451 41.5983C13.7473 41.5574 13.7473 41.5165 13.7451 41.4756V41.3257L13.8746 41.387C15.3327 42.127 16.9417 42.5211 18.5767 42.5387C20.1969 42.52 21.7914 42.1307 23.2379 41.4007L23.3333 41.353L23.3878 41.4416C23.4575 41.5825 23.4938 41.7375 23.4938 41.8947C23.4938 42.0519 23.4575 42.207 23.3878 42.3479C23.2279 42.7202 22.9626 43.0376 22.6246 43.2611C21.9531 43.7258 21.1877 44.0375 20.3826 44.1742H20.369ZM22.2089 45.5372C22.6604 45.0727 23.2272 44.7364 23.8512 44.5627C25.833 43.8901 27.9888 43.9408 29.9367 44.7058C30.3976 44.8807 30.8141 45.1553 31.1565 45.5099C31.3112 45.6449 31.4353 45.8114 31.5202 45.9983C31.6052 46.1852 31.6492 46.3881 31.6492 46.5934C31.6492 46.7987 31.6052 47.0017 31.5202 47.1886C31.4353 47.3755 31.3112 47.542 31.1565 47.677C30.5569 48.2326 29.8171 48.6142 29.0167 48.7809C28.2644 48.9747 27.4903 49.0709 26.7134 49.0672C25.6006 49.0822 24.4966 48.8688 23.4696 48.4402C23.033 48.2652 22.6365 48.0032 22.3043 47.6701C22.1476 47.5405 22.0199 47.3792 21.9298 47.1968C21.8397 47.0144 21.7892 46.815 21.7815 46.6117C21.7737 46.4084 21.809 46.2058 21.885 46.0171C21.9611 45.8284 22.0761 45.6579 22.2225 45.5167L22.2089 45.5372ZM31.3814 50.4641C31.1491 50.8435 30.8197 51.154 30.4274 51.3637C29.7528 51.7444 29.0134 51.9963 28.2467 52.1065C27.7036 52.1944 27.1545 52.24 26.6044 52.2428C25.6197 52.2456 24.642 52.0773 23.7149 51.7453C23.1548 51.5698 22.6468 51.2585 22.2362 50.839C22.0419 50.6041 21.8959 50.3331 21.8068 50.0416C21.7591 49.8446 21.7591 49.639 21.8068 49.442L21.8477 49.1762L21.984 49.258C23.409 50.0588 25.025 50.457 26.6589 50.4096C28.3 50.4765 29.9262 50.0747 31.3473 49.2511L31.4496 49.1898L31.5041 49.292C31.5912 49.476 31.6271 49.6802 31.6079 49.8829C31.5887 50.0856 31.5152 50.2793 31.395 50.4437L31.3814 50.4641ZM31.47 53.449C31.3211 53.7819 31.0858 54.069 30.7885 54.2803C30.1087 54.7661 29.3245 55.0858 28.4988 55.214C27.879 55.3343 27.2493 55.3959 26.618 55.3979C25.6283 55.4 24.6459 55.2294 23.7149 54.8937C23.1497 54.7137 22.6372 54.3978 22.2225 53.9737C22.078 53.8394 21.9624 53.6771 21.8828 53.4967C21.8031 53.3162 21.761 53.1215 21.7591 52.9242C21.7616 52.8221 21.78 52.7209 21.8137 52.6244V52.529L21.8477 52.3927L21.9704 52.454C23.4246 53.1915 25.0285 53.5855 26.6589 53.6057C28.2903 53.5813 29.8943 53.1826 31.3473 52.4404L31.4359 52.3927L31.4904 52.4813C31.5653 52.6282 31.6037 52.7909 31.6025 52.9557C31.6013 53.1206 31.5606 53.2827 31.4836 53.4285L31.47 53.449Z" fill="#BD1622"/>
<path d="M35.6065 52.2223H35.4361C35.3069 52.2289 35.1828 52.2749 35.0805 52.3541C34.9781 52.4332 34.9025 52.5419 34.8637 52.6653C34.8236 52.7606 34.8088 52.8646 34.8207 52.9673C34.8327 53.07 34.8709 53.1678 34.9318 53.2514C35.0121 53.3538 35.1161 53.4352 35.2348 53.4886C35.3535 53.5421 35.4834 53.5659 35.6133 53.558H53.8357C54.0643 53.5605 54.2926 53.5399 54.5171 53.4967C55.2237 53.3649 55.8608 52.9876 56.316 52.4314C56.7712 51.8752 57.015 51.176 57.0045 50.4573V32.7393C57.0227 32.4128 56.9341 32.0892 56.7521 31.8175C56.5702 31.5458 56.3047 31.3407 55.9959 31.2332L53.5222 30.1906L49.3107 28.4188C49.2076 28.3903 49.1179 28.3259 49.058 28.2372C48.998 28.1485 48.9717 28.0413 48.9836 27.935C48.9836 25.0137 48.9836 22.0857 48.9836 19.1509V19.1032C49.001 18.9082 49.001 18.7121 48.9836 18.5171C48.8665 17.7801 48.4851 17.111 47.9108 16.6345C47.3365 16.158 46.6085 15.9067 45.8625 15.9276H23.5514C23.1369 15.9107 22.7232 15.9789 22.3361 16.128C21.9489 16.2771 21.5963 16.5038 21.3001 16.7943C21.0039 17.0848 20.7702 17.4328 20.6136 17.817C20.457 18.2012 20.3807 18.6134 20.3894 19.0282V21.5769C20.3894 22.0198 20.3894 22.456 20.3894 22.8989C20.3894 23.0797 20.4612 23.253 20.589 23.3808C20.7168 23.5086 20.8901 23.5804 21.0709 23.5804C21.1645 23.5806 21.2572 23.5616 21.3432 23.5244C21.4291 23.4872 21.5065 23.4327 21.5704 23.3642C21.6344 23.2958 21.6835 23.215 21.7148 23.1267C21.7461 23.0384 21.7589 22.9446 21.7523 22.8512V19.001C21.7484 18.7674 21.7937 18.5357 21.8852 18.3208C21.9768 18.1059 22.1127 17.9128 22.2839 17.7539C22.4681 17.5884 22.6837 17.4616 22.9177 17.3808C23.1518 17.3001 23.3997 17.267 23.6468 17.2837H45.8966C46.1252 17.2808 46.3521 17.3242 46.5635 17.4112C46.7749 17.4982 46.9666 17.6271 47.127 17.79C47.2874 17.953 47.4132 18.1466 47.4969 18.3594C47.5805 18.5722 47.6203 18.7997 47.6139 19.0282V24.3504C47.6139 28.5028 47.6139 32.6507 47.6139 36.794C47.6205 36.8783 47.6011 36.9626 47.5585 37.0357C47.5159 37.1087 47.452 37.1671 47.3754 37.2029L37.3783 42.8386L36.8536 43.1316L34.7547 44.3105C34.624 44.3785 34.5189 44.4869 34.455 44.6195C34.3911 44.7522 34.3719 44.902 34.4003 45.0465C34.4322 45.1806 34.5039 45.3019 34.6061 45.3943C34.7083 45.4868 34.8361 45.5461 34.9727 45.5644C35.1839 45.5863 35.3955 45.5279 35.5656 45.4009L49.0654 37.8298L55.662 34.1295V50.4096C55.6721 50.639 55.6363 50.868 55.5568 51.0833C55.4772 51.2986 55.3554 51.4959 55.1986 51.6635C55.0157 51.8541 54.7937 52.0028 54.5478 52.0993C54.3019 52.1957 54.038 52.2377 53.7743 52.2223H35.6065ZM48.9905 36.3033V29.7681L55.6279 32.5621L55.4371 32.6711L49.1608 36.2079L48.9905 36.3033Z" fill="#BD1622"/>
<path d="M29.1599 37.121C29.175 37.2664 29.232 37.4043 29.324 37.518C29.4159 37.6317 29.5388 37.7163 29.6778 37.7616C29.7479 37.7709 29.8189 37.7709 29.889 37.7616C30.0231 37.7522 30.1523 37.7075 30.2636 37.6322C30.3749 37.5568 30.4643 37.4533 30.5228 37.3323L40.0633 21.6995C40.1468 21.5885 40.1919 21.4534 40.1919 21.3145C40.1919 21.1756 40.1468 21.0405 40.0633 20.9295C39.9875 20.8237 39.8831 20.7419 39.7624 20.6936C39.6416 20.6453 39.5096 20.6325 39.3818 20.6569C39.2707 20.6729 39.1653 20.7161 39.075 20.7827C38.9846 20.8493 38.9121 20.9371 38.8639 21.0385C38.3051 21.9471 37.7418 22.8739 37.1739 23.8189L36.2539 25.3249L29.3575 36.6713C29.3004 36.7736 29.2525 36.8808 29.2144 36.9916C29.1939 37.0324 29.1803 37.0733 29.1599 37.121Z" fill="#BD1622"/>
<path d="M29.8822 20.6705C29.2019 20.677 28.5502 20.9455 28.0627 21.4201C27.7944 21.6865 27.565 21.9893 27.3812 22.3197C26.907 23.1443 26.72 24.1031 26.8497 25.0455C26.9279 25.9826 27.336 26.8616 28.0014 27.5261C28.2471 27.784 28.5426 27.9893 28.87 28.1296C29.1974 28.2699 29.5499 28.3423 29.9061 28.3423C30.2623 28.3423 30.6148 28.2699 30.9422 28.1296C31.2696 27.9893 31.5651 27.784 31.8108 27.5261C32.201 27.1286 32.5067 26.6562 32.7093 26.1373C32.9119 25.6185 33.0073 25.0639 32.9897 24.5072C33.0057 23.9515 32.9081 23.3984 32.7031 22.8817C32.498 22.3649 32.1898 21.8955 31.7971 21.5019C31.5482 21.2443 31.251 21.0383 30.9224 20.8956C30.5938 20.753 30.2404 20.6765 29.8822 20.6705ZM29.8822 26.9809H29.671C29.351 26.918 29.0624 26.7472 28.8532 26.4971C28.3603 25.8842 28.1169 25.1078 28.1717 24.3232C28.1879 23.7145 28.4033 23.128 28.7851 22.6536C28.9088 22.4742 29.0721 22.3257 29.2623 22.2194C29.4525 22.113 29.6646 22.0518 29.8822 22.0403C30.0993 22.0516 30.3111 22.1114 30.5021 22.2151C30.6931 22.3189 30.8585 22.464 30.9862 22.64C31.3801 23.1816 31.5923 23.8341 31.5923 24.5038C31.5923 25.1735 31.3801 25.826 30.9862 26.3676C30.866 26.5504 30.7035 26.7015 30.5125 26.8083C30.3216 26.915 30.1077 26.9742 29.889 26.9809H29.8822Z" fill="#BD1622"/>
<path d="M39.5249 30.1701C38.8405 30.1766 38.1846 30.4448 37.6918 30.9197C37.4293 31.1608 37.2001 31.4358 37.0103 31.7375C36.5062 32.5787 36.3042 33.5667 36.4379 34.5383C36.5252 35.4644 36.9353 36.3304 37.5964 36.9847C37.8403 37.2421 38.134 37.4471 38.4597 37.5871C38.7855 37.7272 39.1363 37.7994 39.4908 37.7994C39.8454 37.7994 40.1962 37.7272 40.522 37.5871C40.8477 37.4471 41.1414 37.2421 41.3853 36.9847C42.1494 36.1679 42.5746 35.0912 42.5746 33.9727C42.5746 32.8542 42.1494 31.7774 41.3853 30.9606C40.8894 30.4684 40.2234 30.1854 39.5249 30.1701ZM39.5249 36.4736H39.3C38.9822 36.4103 38.6958 36.2395 38.4891 35.9898C38.0002 35.3774 37.7572 34.6047 37.8076 33.8228C37.83 33.2132 38.0447 32.6264 38.4209 32.1464C38.5414 31.9584 38.7037 31.8008 38.8953 31.6861C39.0868 31.5715 39.3023 31.5027 39.5249 31.4853C39.7414 31.4952 39.9527 31.5544 40.1428 31.6583C40.3329 31.7623 40.4969 31.9082 40.6221 32.085C41.017 32.6262 41.2298 33.2789 41.2298 33.9488C41.2298 34.6188 41.017 35.2714 40.6221 35.8126C40.5034 35.9979 40.3416 36.1518 40.1505 36.2609C39.9595 36.3701 39.7448 36.4314 39.5249 36.4396V36.4736Z" fill="#BD1622"/>
</svg>
