<svg width="70" height="71" viewBox="0 0 70 71" fill="none" xmlns="http://www.w3.org/2000/svg">
<path d="M62.1291 0.311035H7.85047C3.51477 0.311035 0 3.82581 0 8.1615V62.4401C0 66.7758 3.51477 70.2906 7.85047 70.2906H62.1291C66.4648 70.2906 69.9796 66.7758 69.9796 62.4401V8.1615C69.9796 3.82581 66.4648 0.311035 62.1291 0.311035Z" fill="#ECECEC"/>
<path fill-rule="evenodd" clip-rule="evenodd" d="M62.6947 35.5291C62.6934 41.0106 61.0666 46.3687 58.0201 50.9257C54.9736 55.4826 50.6442 59.0339 45.5794 61.1303C40.5146 63.2268 34.9419 63.7743 29.5659 62.7036C24.19 61.6328 19.2523 58.992 15.3772 55.115C11.5021 51.238 8.8637 46.299 7.79563 40.9226C6.72755 35.5461 7.27778 29.9736 9.37672 24.9099C11.4757 19.8461 15.029 15.5184 19.5875 12.4742C24.146 9.42993 29.5048 7.80578 34.9864 7.80713C38.626 7.80802 42.2298 8.52578 45.592 9.91943C48.9542 11.3131 52.009 13.3553 54.582 15.9295C57.1549 18.5037 59.1956 21.5595 60.5876 24.9224C61.9796 28.2853 62.6956 31.8895 62.6947 35.5291Z" fill="white"/>
<path d="M30.8294 47.0935C30.203 47.856 29.3629 48.4137 28.417 48.695C28.0705 48.7908 27.7134 48.8435 27.354 48.8517C24.7712 48.8517 22.1816 48.8517 19.5989 48.8517C18.9651 48.8517 18.7403 48.5791 18.8152 47.9386C18.9515 46.6915 19.7761 46.0713 20.8596 45.6693C20.946 45.6279 21.0348 45.5915 21.1254 45.5602L20.6075 43.0388C20.5529 43.107 20.4575 43.216 20.3826 43.325C19.2991 44.9878 18.2019 46.6506 17.132 48.3202C17.0406 48.4895 16.9014 48.6283 16.7318 48.7191C16.5622 48.81 16.3696 48.849 16.1779 48.8313C15.6055 48.8313 15.0331 48.8313 14.4607 48.8313C14.154 48.8313 13.861 48.8313 13.6974 48.4974C13.6378 48.3603 13.6189 48.209 13.6431 48.0616C13.6673 47.9141 13.7334 47.7768 13.8337 47.666C14.915 45.926 15.994 44.1837 17.0707 42.4391C17.1694 42.2841 17.2237 42.105 17.2274 41.9212C17.2274 38.7388 17.2274 35.5632 17.2274 32.3807C17.2274 32.2853 17.2274 32.1831 17.2274 32.0945C16.7551 32.0744 16.2842 32.0289 15.8168 31.9582C15.0949 31.813 14.416 31.504 13.8323 31.055C13.2487 30.6061 12.7759 30.0291 12.4503 29.3687C12.2186 28.9325 12.3617 28.5918 12.8456 28.3874C13.602 28.0739 14.3653 27.7808 15.1149 27.4537C15.2841 27.3758 15.4179 27.2372 15.4897 27.0653C15.6035 26.7468 15.7839 26.4562 16.0189 26.2129C16.254 25.9697 16.5382 25.7794 16.8526 25.6547C16.94 25.6289 17.0163 25.5747 17.0694 25.5006C17.1225 25.4266 17.1493 25.3369 17.1456 25.2458C17.1456 24.8233 17.2138 24.4076 17.2478 23.9851C17.2488 23.847 17.2916 23.7125 17.3707 23.5993C17.4498 23.4861 17.5615 23.3997 17.6908 23.3513C17.8218 23.3071 17.9636 23.3064 18.095 23.3494C18.2265 23.3923 18.3405 23.4767 18.42 23.5898L19.0265 24.2713C19.1355 23.8897 19.2309 23.5898 19.3263 23.2491C19.3672 23.1128 19.4013 22.9833 19.4422 22.8539C19.475 22.715 19.5538 22.5913 19.6657 22.5027C19.7777 22.4142 19.9162 22.3661 20.0589 22.3661C20.2016 22.3661 20.3401 22.4142 20.452 22.5027C20.564 22.5913 20.6427 22.715 20.6756 22.8539C20.9618 23.6307 21.2412 24.4144 21.5274 25.1981L24.2533 32.7555C24.278 32.8613 24.331 32.9584 24.4066 33.0364C24.4823 33.1145 24.5776 33.1705 24.6826 33.1985C27.1189 33.8994 29.2286 35.4395 30.6386 37.5462C30.6795 37.6007 30.7272 37.6484 30.8499 37.7847V37.2464C30.8499 34.5205 30.8499 31.7742 30.8499 29.0075C30.8221 28.5841 30.8983 28.1604 31.0717 27.7732C31.2451 27.386 31.5105 27.0471 31.8448 26.7859C32.288 26.4394 32.836 26.2543 33.3985 26.2612H47.0278C47.4875 26.2696 47.9265 26.4536 48.2547 26.7755C48.5829 27.0974 48.7755 27.5327 48.7928 27.9921C48.8288 28.4569 48.6801 28.917 48.379 29.2729C48.078 29.6288 47.6488 29.8517 47.1846 29.8934C46.2918 29.9547 45.3923 29.8934 44.4996 29.8934H42.9322C43.0276 30.0024 43.0685 30.0706 43.123 30.1251C43.9749 30.8747 44.8131 31.6243 45.6785 32.3535C45.752 32.4109 45.8365 32.4526 45.9268 32.476C46.017 32.4995 46.1111 32.5042 46.2033 32.4898C47.1232 32.333 48.0296 32.1354 48.9291 31.9514C49.1995 31.8611 49.4857 31.8283 49.7695 31.8551C50.0532 31.8819 50.3282 31.9678 50.5769 32.1072C50.8255 32.2466 51.0422 32.4364 51.2131 32.6645C51.384 32.8926 51.5053 33.154 51.5693 33.4317C51.6332 33.7095 51.6384 33.9975 51.5844 34.2774C51.5305 34.5573 51.4186 34.8228 51.256 35.0569C51.0934 35.291 50.8836 35.4884 50.6401 35.6367C50.3967 35.7849 50.1249 35.8805 49.8423 35.9175C49.338 36.0334 48.8201 36.1288 48.309 36.231C47.4844 36.3946 46.653 36.5377 45.8285 36.7217C45.4773 36.808 45.1099 36.8038 44.7608 36.7097C44.4116 36.6156 44.092 36.4345 43.8318 36.1833L40.663 33.4029C40.5744 33.3212 40.4858 33.253 40.3495 33.144V42.1393C40.4653 42.0371 40.5403 41.9826 40.6016 41.9144C41.8283 40.6969 43.0504 39.4748 44.2679 38.2481C44.7245 37.7916 45.038 37.7847 45.5013 38.2481C47.5685 40.3152 49.631 42.3824 51.689 44.4495C51.7752 44.5424 51.8812 44.6146 51.9993 44.6606C52.1173 44.7066 52.2442 44.7253 52.3705 44.7152C53.4677 44.7152 54.558 44.7152 55.6552 44.7152C55.9236 44.6933 56.1938 44.7245 56.4502 44.807C56.7067 44.8894 56.9443 45.0216 57.1497 45.196C57.355 45.3703 57.524 45.5834 57.647 45.823C57.77 46.0627 57.8446 46.3242 57.8665 46.5927C57.8884 46.8611 57.8573 47.1313 57.7748 47.3877C57.6923 47.6442 57.5601 47.8818 57.3858 48.0872C57.2115 48.2925 56.9984 48.4615 56.7587 48.5845C56.5191 48.7075 56.2576 48.7821 55.9891 48.804C55.7778 48.804 55.5666 48.804 55.3553 48.804C48.0841 48.804 40.8197 48.804 33.5485 48.804C32.206 48.8381 31.2792 48.4224 30.8294 47.0935ZM44.8812 43.9724L44.1998 44.7152H45.4741L44.8812 43.9724Z" fill="#BD1622"/>
<path d="M35.0477 25.5661C34.1163 25.5553 33.2089 25.2689 32.44 24.743C31.6712 24.2171 31.0753 23.4753 30.7275 22.6112C30.3798 21.747 30.2957 20.7992 30.486 19.8874C30.6763 18.9755 31.1324 18.1404 31.7967 17.4875C32.4611 16.8345 33.3039 16.3929 34.2189 16.2184C35.1339 16.0439 36.0801 16.1443 36.9382 16.507C37.7962 16.8696 38.5276 17.4783 39.0401 18.2561C39.5526 19.0339 39.8233 19.9461 39.818 20.8776C39.7965 22.1285 39.2845 23.321 38.3922 24.198C37.4999 25.0749 36.2988 25.5663 35.0477 25.5661Z" fill="#BD1622"/>
</svg>
