<svg width="48" height="48" viewBox="0 0 48 48" fill="none" xmlns="http://www.w3.org/2000/svg">
<path d="M42.6168 0.0045166H5.38318C2.41013 0.0045166 0 2.41465 0 5.38769V42.6213C0 45.5944 2.41013 48.0045 5.38318 48.0045H42.6168C45.5899 48.0045 48 45.5944 48 42.6213V5.38769C48 2.41465 45.5899 0.0045166 42.6168 0.0045166Z" fill="#ECECEC"/>
<path d="M43.0141 25.0139C43.0141 35.2008 34.5001 43.4625 24.0001 43.4625C13.5001 43.4625 4.99072 35.2008 4.99072 25.0139C4.99072 14.827 13.5001 6.54663 24.0001 6.54663C34.5001 6.54663 43.0141 14.827 43.0141 25.0139Z" fill="white"/>
<path d="M22.0841 30.0466C21.6671 29.5995 21.1427 29.2665 20.5607 29.0793C19.6289 28.7674 18.6409 28.659 17.6635 28.7616L17.4346 28.7849L17.1355 28.813V25.9625C17.1355 23.8223 17.1355 21.6806 17.1355 19.5373C17.1427 19.0166 16.9466 18.5137 16.5888 18.1354C16.1647 17.6928 15.6311 17.3703 15.0421 17.2008C13.8223 16.8051 12.5193 16.7406 11.2664 17.0139C10.5185 17.137 9.81776 17.4599 9.23832 17.9485C9.00965 18.1343 8.82518 18.3686 8.69829 18.6345C8.5714 18.9004 8.50526 19.1912 8.50467 19.4859V32.4204C8.50227 32.818 8.62667 33.2059 8.85981 33.5279C9.19368 33.9981 9.65377 34.3642 10.1869 34.584C11.2041 35.0007 12.3081 35.1612 13.4019 35.0513L13.7056 35.0186L13.9813 34.9905V35.6634C13.9689 36.1397 14.1356 36.6033 14.4486 36.9625C14.8626 37.4272 15.3959 37.7698 15.9907 37.9531C17.1761 38.3528 18.4452 38.4366 19.6729 38.1961C20.3835 38.0865 21.0578 37.8094 21.6402 37.3877C21.9327 37.2 22.1739 36.9423 22.342 36.638C22.51 36.3337 22.5997 35.9923 22.6028 35.6447V31.3784C22.6067 30.8844 22.4211 30.4078 22.0841 30.0466ZM9.81308 18.6541C10.1873 18.33 10.6322 18.0979 11.1121 17.9765C11.673 17.8272 12.2515 17.7549 12.8318 17.7616C13.6159 17.7439 14.3938 17.9036 15.1075 18.2288C15.3804 18.3605 15.6311 18.5339 15.8505 18.7429C15.9554 18.8337 16.0395 18.946 16.0971 19.0722C16.1548 19.1983 16.1846 19.3354 16.1846 19.4742C16.1846 19.6129 16.1548 19.75 16.0971 19.8762C16.0395 20.0024 15.9554 20.1147 15.8505 20.2055C15.549 20.5023 15.1803 20.722 14.7757 20.8457C14.1372 21.0612 13.4683 21.1732 12.7944 21.1774C12.071 21.1737 11.3542 21.0408 10.6776 20.7849C10.3541 20.67 10.0593 20.4867 9.81308 20.2475C9.69176 20.1532 9.59358 20.0323 9.52605 19.8943C9.45852 19.7562 9.42342 19.6045 9.42342 19.4508C9.42342 19.2971 9.45852 19.1454 9.52605 19.0074C9.59358 18.8693 9.69176 18.7484 9.81308 18.6541ZM16.1308 24.0279C16.0403 24.3075 15.8595 24.5491 15.6168 24.7148C15.21 25.0135 14.7427 25.2193 14.2477 25.3176C13.7584 25.4276 13.2585 25.484 12.757 25.4859C12.0719 25.4826 11.3924 25.3625 10.7477 25.1307C10.3829 25.0046 10.0508 24.7987 9.7757 24.5279C9.58944 24.3579 9.47289 24.1247 9.4486 23.8737C9.43894 23.7899 9.43894 23.7052 9.4486 23.6214V23.5232V23.4204L9.54673 23.4672C10.5473 23.9725 11.6501 24.2426 12.771 24.2569C13.8817 24.2418 14.9746 23.975 15.9673 23.4765L16.028 23.4485L16.0654 23.4999C16.1163 23.5768 16.1494 23.6641 16.1623 23.7555C16.1753 23.8468 16.1677 23.9399 16.1402 24.0279H16.1308ZM16.0981 26.2849C15.9896 26.5409 15.8075 26.7589 15.5748 26.9111C15.0938 27.2407 14.544 27.4564 13.9673 27.5419C13.5676 27.6117 13.1627 27.6476 12.757 27.6494C12.0907 27.6503 11.4289 27.5397 10.7991 27.3223C10.4077 27.1975 10.0509 26.9831 9.75701 26.6961C9.56231 26.5202 9.44338 26.2757 9.42523 26.0139C9.41601 25.9316 9.41601 25.8485 9.42523 25.7662C9.42523 25.7288 9.42523 25.6868 9.4486 25.6447V25.5326L9.54673 25.5933C10.5173 26.1605 11.6289 26.4408 12.7523 26.4017C13.8651 26.4405 14.9663 26.1652 15.9299 25.6074L15.9953 25.57L16.0374 25.6354C16.1002 25.7301 16.1393 25.8386 16.1515 25.9516C16.1637 26.0646 16.1486 26.1789 16.1075 26.2849H16.0981ZM16.1308 21.8644C16.0419 22.1448 15.8608 22.3869 15.6168 22.5513C15.2113 22.8492 14.7456 23.055 14.2523 23.1541C13.7614 23.2637 13.26 23.3201 12.757 23.3223C12.0715 23.319 11.3917 23.1973 10.7477 22.9625C10.3635 22.8363 10.0177 22.6143 9.74299 22.3176C9.62451 22.2023 9.53873 22.0577 9.4944 21.8984C9.45007 21.7392 9.44878 21.571 9.49065 21.4111V21.3877C9.49482 21.3683 9.50537 21.3509 9.52062 21.3382C9.53587 21.3255 9.55493 21.3182 9.57477 21.3176H9.61682C10.6059 21.8111 11.6938 22.0747 12.7991 22.0887C13.9115 22.0754 15.0063 21.8085 16 21.3083L16.0607 21.2802L16.0935 21.3317C16.1417 21.4109 16.171 21.5001 16.1791 21.5925C16.1872 21.6849 16.1739 21.778 16.1402 21.8644H16.1308ZM13.7944 33.8784L13.757 33.9017H13.4486C13.1273 33.9353 12.8044 33.9525 12.4813 33.9531C11.7918 33.9431 11.1126 33.7837 10.4907 33.4859C10.1786 33.3562 9.90853 33.1427 9.71028 32.869C9.64488 32.7811 9.60179 32.6786 9.5847 32.5704C9.56761 32.4621 9.57703 32.3513 9.61215 32.2475C10.5659 32.7768 11.6432 33.0429 12.7336 33.0186C13.1005 33.018 13.4671 32.9978 13.8318 32.9578V33.084C13.8318 33.3644 13.8318 33.6214 13.8224 33.8784H13.7944ZM14.0187 30.9438C14.0187 31.2008 13.986 31.4625 13.9673 31.7195C13.9602 31.7588 13.9419 31.7952 13.9145 31.8242C13.8871 31.8533 13.8519 31.8737 13.8131 31.8831C13.45 31.9417 13.0828 31.9714 12.715 31.9718C11.9316 31.9812 11.1555 31.8218 10.4393 31.5045C10.1451 31.3795 9.88432 31.1875 9.67757 30.9438C9.55762 30.8239 9.47452 30.6722 9.43808 30.5066C9.40164 30.341 9.4134 30.1684 9.47196 30.0092C9.47573 29.9933 9.48382 29.9788 9.49533 29.9672L9.54673 29.8877L9.61215 29.9251C10.9331 30.6532 12.465 30.9024 13.9486 30.6307H14.0421L14.0187 30.9438ZM13.9673 29.7008C13.568 29.7743 13.163 29.8119 12.757 29.813C12.0907 29.8138 11.4289 29.7033 10.7991 29.4859C10.4077 29.361 10.0509 29.1466 9.75701 28.8597C9.56231 28.6838 9.44338 28.4392 9.42523 28.1774C9.41512 28.0968 9.41512 28.0151 9.42523 27.9345C9.42674 27.9064 9.42674 27.8784 9.42523 27.8503V27.7475L9.51402 27.7896C10.5139 28.297 11.6172 28.5672 12.7383 28.5793C13.8493 28.5665 14.9427 28.2996 15.9346 27.7989L16 27.7662L16.0374 27.827C16.0852 27.9236 16.11 28.0299 16.11 28.1377C16.11 28.2455 16.0852 28.3519 16.0374 28.4485C15.9277 28.7037 15.7458 28.9214 15.514 29.0746C15.0535 29.3933 14.5287 29.6071 13.9766 29.7008H13.9673ZM15.229 30.6354C15.5386 30.3169 15.9272 30.0863 16.3551 29.9672C17.714 29.506 19.1923 29.5407 20.528 30.0653C20.8441 30.1852 21.1297 30.3735 21.3645 30.6167C21.4706 30.7092 21.5556 30.8234 21.6139 30.9516C21.6721 31.0798 21.7023 31.2189 21.7023 31.3597C21.7023 31.5005 21.6721 31.6396 21.6139 31.7678C21.5556 31.8959 21.4706 32.0101 21.3645 32.1027C20.9533 32.4837 20.446 32.7454 19.8972 32.8597C19.3813 32.9926 18.8505 33.0585 18.3178 33.056C17.5547 33.0663 16.7977 32.9199 16.0935 32.626C15.7941 32.506 15.5222 32.3264 15.2944 32.098C15.1869 32.0091 15.0994 31.8985 15.0376 31.7734C14.9758 31.6483 14.9412 31.5116 14.9359 31.3722C14.9306 31.2328 14.9548 31.0939 15.0069 30.9645C15.059 30.8351 15.1379 30.7182 15.2383 30.6214L15.229 30.6354ZM21.5187 34.0139C21.3594 34.274 21.1335 34.487 20.8645 34.6307C20.402 34.8918 19.8949 35.0645 19.3692 35.1401C18.9968 35.2004 18.6202 35.2316 18.243 35.2335C17.5678 35.2355 16.8974 35.12 16.2617 34.8924C15.8776 34.7721 15.5292 34.5586 15.2477 34.2709C15.1144 34.1099 15.0144 33.9241 14.9533 33.7242C14.9206 33.5891 14.9206 33.4481 14.9533 33.313L14.9813 33.1307L15.0748 33.1868C16.0519 33.736 17.16 34.009 18.2804 33.9765C19.4057 34.0224 20.5209 33.7469 21.4953 33.1821L21.5654 33.1401L21.6028 33.2102C21.6626 33.3363 21.6872 33.4763 21.674 33.6153C21.6608 33.7543 21.6104 33.8872 21.528 33.9999L21.5187 34.0139ZM21.5794 36.0606C21.4773 36.2889 21.316 36.4858 21.1121 36.6307C20.646 36.9638 20.1082 37.1831 19.5421 37.2709C19.1171 37.3534 18.6853 37.3956 18.2523 37.3971C17.5737 37.3985 16.9001 37.2815 16.2617 37.0513C15.8741 36.9279 15.5227 36.7113 15.2383 36.4204C15.1392 36.3284 15.06 36.2171 15.0053 36.0933C14.9507 35.9696 14.9219 35.8361 14.9206 35.7008C14.9222 35.6307 14.9349 35.5614 14.9579 35.4952V35.4298L14.9813 35.3363L15.0654 35.3784C16.0626 35.8841 17.1624 36.1542 18.2804 36.1681C19.3991 36.1513 20.499 35.878 21.4953 35.369L21.5561 35.3363L21.5935 35.3971C21.6448 35.4978 21.6711 35.6094 21.6703 35.7224C21.6695 35.8354 21.6415 35.9466 21.5888 36.0466L21.5794 36.0606Z" fill="#BD1622"/>
<path d="M24.4159 35.2195H24.2991C24.2104 35.224 24.1253 35.2555 24.0552 35.3098C23.985 35.3641 23.9331 35.4386 23.9065 35.5233C23.879 35.5886 23.8689 35.6599 23.8771 35.7303C23.8852 35.8008 23.9115 35.8679 23.9533 35.9251C24.0083 35.9954 24.0796 36.0512 24.161 36.0878C24.2424 36.1245 24.3315 36.1408 24.4205 36.1354H36.9159C37.0727 36.1371 37.2292 36.123 37.3832 36.0934C37.8676 36.003 38.3046 35.7443 38.6167 35.3629C38.9288 34.9815 39.096 34.502 39.0888 34.0092V21.8597C39.1012 21.6358 39.0405 21.414 38.9157 21.2277C38.791 21.0414 38.6089 20.9007 38.3972 20.827L36.7009 20.112L33.8131 18.8971C33.7423 18.8775 33.6809 18.8334 33.6397 18.7726C33.5986 18.7118 33.5806 18.6383 33.5888 18.5653C33.5888 16.5622 33.5888 14.5544 33.5888 12.542V12.5092C33.6007 12.3756 33.6007 12.2411 33.5888 12.1074C33.5084 11.602 33.2469 11.1432 32.8531 10.8164C32.4593 10.4897 31.9601 10.3174 31.4486 10.3317H16.1495C15.8653 10.3201 15.5816 10.3669 15.3161 10.4691C15.0506 10.5713 14.8089 10.7268 14.6058 10.926C14.4026 11.1252 14.2424 11.3639 14.135 11.6273C14.0276 11.8908 13.9753 12.1734 13.9813 12.4578V14.2055C13.9813 14.5092 13.9813 14.8083 13.9813 15.112C13.9813 15.236 14.0305 15.3548 14.1182 15.4425C14.2058 15.5301 14.3247 15.5793 14.4486 15.5793C14.5128 15.5795 14.5764 15.5664 14.6353 15.5409C14.6942 15.5154 14.7473 15.478 14.7911 15.4311C14.835 15.3842 14.8687 15.3287 14.8902 15.2682C14.9116 15.2077 14.9204 15.1434 14.9159 15.0793V12.4391C14.9132 12.279 14.9442 12.1201 15.007 11.9727C15.0698 11.8254 15.163 11.693 15.2804 11.584C15.4067 11.4706 15.5545 11.3836 15.715 11.3282C15.8755 11.2728 16.0455 11.2502 16.2149 11.2616H31.4719C31.6287 11.2596 31.7843 11.2894 31.9292 11.349C32.0742 11.4087 32.2057 11.4971 32.3156 11.6088C32.4256 11.7205 32.5119 11.8533 32.5693 11.9992C32.6266 12.1451 32.6539 12.3011 32.6495 12.4578V16.1074C32.6495 18.9547 32.6495 21.799 32.6495 24.6401C32.654 24.6979 32.6408 24.7557 32.6115 24.8058C32.5823 24.8559 32.5385 24.8959 32.486 24.9205L25.6308 28.7849L25.271 28.9859L23.8318 29.7943C23.7422 29.8409 23.6701 29.9152 23.6263 30.0062C23.5825 30.0972 23.5693 30.1999 23.5888 30.299C23.6106 30.3909 23.6598 30.4741 23.7299 30.5375C23.8 30.6009 23.8876 30.6415 23.9813 30.6541C24.1261 30.6691 24.2712 30.6291 24.3878 30.542L33.6448 25.3504L38.1682 22.813V33.9765C38.1751 34.1338 38.1506 34.2908 38.0961 34.4385C38.0415 34.5861 37.958 34.7214 37.8505 34.8363C37.7251 34.967 37.5728 35.069 37.4042 35.1351C37.2356 35.2013 37.0546 35.2301 36.8738 35.2195H24.4159ZM33.5934 24.3036V19.8223L38.1448 21.7382L38.014 21.813L33.7103 24.2382L33.5934 24.3036Z" fill="#BD1622"/>
<path d="M19.9954 24.8644C20.0058 24.9641 20.0449 25.0586 20.1079 25.1366C20.1709 25.2145 20.2552 25.2726 20.3505 25.3036C20.3986 25.31 20.4473 25.31 20.4954 25.3036C20.5873 25.2972 20.6759 25.2665 20.7522 25.2149C20.8285 25.1632 20.8898 25.0922 20.9299 25.0092L27.472 14.2896C27.5292 14.2135 27.5602 14.1208 27.5602 14.0256C27.5602 13.9303 27.5292 13.8377 27.472 13.7616C27.4201 13.6891 27.3485 13.6329 27.2657 13.5998C27.1829 13.5667 27.0923 13.558 27.0047 13.5747C26.9285 13.5857 26.8563 13.6153 26.7943 13.6609C26.7324 13.7066 26.6826 13.7668 26.6496 13.8363C26.2664 14.4594 25.8801 15.0949 25.4907 15.7429L24.8598 16.7756L20.1309 24.556C20.0917 24.6261 20.0589 24.6996 20.0327 24.7756C20.0187 24.8036 20.0094 24.8317 19.9954 24.8644Z" fill="#BD1622"/>
<path d="M20.4906 13.584C20.0241 13.5884 19.5772 13.7725 19.2429 14.098C19.059 14.2806 18.9016 14.4883 18.7757 14.7148C18.4504 15.2803 18.3222 15.9378 18.4112 16.584C18.4648 17.2266 18.7446 17.8293 19.2009 18.2849C19.3693 18.4618 19.572 18.6026 19.7965 18.6988C20.021 18.795 20.2627 18.8446 20.507 18.8446C20.7512 18.8446 20.9929 18.795 21.2174 18.6988C21.4419 18.6026 21.6446 18.4618 21.813 18.2849C22.0806 18.0124 22.2902 17.6884 22.4292 17.3326C22.5681 16.9768 22.6335 16.5966 22.6214 16.2148C22.6324 15.8338 22.5655 15.4545 22.4249 15.1002C22.2843 14.7459 22.0729 14.4239 21.8037 14.1541C21.633 13.9774 21.4292 13.8362 21.2039 13.7383C20.9786 13.6405 20.7362 13.5881 20.4906 13.584ZM20.4906 17.9111H20.3457C20.1264 17.8679 19.9284 17.7508 19.785 17.5793C19.447 17.1591 19.2801 16.6267 19.3177 16.0887C19.3288 15.6713 19.4765 15.2691 19.7383 14.9438C19.8231 14.8208 19.9351 14.7189 20.0655 14.646C20.196 14.5731 20.3414 14.5311 20.4906 14.5232C20.6395 14.531 20.7847 14.572 20.9157 14.6431C21.0466 14.7143 21.1601 14.8138 21.2476 14.9345C21.5177 15.3058 21.6632 15.7533 21.6632 16.2125C21.6632 16.6717 21.5177 17.1191 21.2476 17.4905C21.1652 17.6159 21.0538 17.7195 20.9228 17.7927C20.7919 17.8659 20.6452 17.9065 20.4953 17.9111H20.4906Z" fill="#BD1622"/>
<path d="M27.1027 20.098C26.6335 20.1025 26.1837 20.2864 25.8457 20.612C25.6657 20.7773 25.5086 20.9659 25.3785 21.1728C25.0328 21.7496 24.8943 22.4271 24.9859 23.0933C25.0458 23.7284 25.327 24.3222 25.7803 24.7709C25.9476 24.9474 26.149 25.0879 26.3723 25.184C26.5957 25.28 26.8363 25.3296 27.0794 25.3296C27.3225 25.3296 27.5631 25.28 27.7864 25.184C28.0098 25.0879 28.2112 24.9474 28.3784 24.7709C28.9024 24.2108 29.1939 23.4725 29.1939 22.7055C29.1939 21.9385 28.9024 21.2002 28.3784 20.6401C28.0384 20.3026 27.5817 20.1085 27.1027 20.098ZM27.1027 24.4205H26.9485C26.7306 24.377 26.5342 24.2599 26.3925 24.0887C26.0572 23.6688 25.8906 23.1389 25.9252 22.6027C25.9405 22.1847 26.0877 21.7823 26.3457 21.4532C26.4283 21.3243 26.5396 21.2162 26.671 21.1376C26.8023 21.059 26.9501 21.0118 27.1027 20.9999C27.2512 21.0067 27.3961 21.0473 27.5265 21.1185C27.6568 21.1898 27.7692 21.2899 27.8551 21.4111C28.1259 21.7822 28.2718 22.2297 28.2718 22.6891C28.2718 23.1485 28.1259 23.5961 27.8551 23.9672C27.7737 24.0943 27.6628 24.1997 27.5318 24.2746C27.4007 24.3495 27.2535 24.3915 27.1027 24.3971V24.4205Z" fill="#BD1622"/>
</svg>
