<svg width="48" height="48" viewBox="0 0 48 48" fill="none" xmlns="http://www.w3.org/2000/svg">
<path d="M42.6028 0H5.38318C2.41013 0 0 2.41013 0 5.38318V42.6028C0 45.5758 2.41013 47.986 5.38318 47.986H42.6028C45.5758 47.986 47.986 45.5758 47.986 42.6028V5.38318C47.986 2.41013 45.5758 0 42.6028 0Z" fill="#ECECEC"/>
<path d="M23.8178 42.9393C34.3138 42.9393 42.8225 34.4306 42.8225 23.9346C42.8225 13.4386 34.3138 4.92993 23.8178 4.92993C13.3218 4.92993 4.81311 13.4386 4.81311 23.9346C4.81311 34.4306 13.3218 42.9393 23.8178 42.9393Z" fill="white"/>
<path d="M14.7522 22.0328C14.3364 22.1075 13.9625 22.173 13.584 22.2524C13.5209 22.2675 13.4658 22.3059 13.4298 22.3599C13.3317 22.5281 13.2476 22.7057 13.1541 22.8926C13.1822 22.9487 13.2242 23.0047 13.2522 23.0655C13.2929 23.1287 13.3192 23.2002 13.3292 23.2747C13.3392 23.3492 13.3328 23.425 13.3103 23.4968C13.2879 23.5685 13.25 23.6345 13.1992 23.69C13.1485 23.7455 13.0862 23.7892 13.0168 23.818C12.9473 23.8469 12.8724 23.8601 12.7973 23.8568C12.7222 23.8535 12.6487 23.8338 12.582 23.799C12.5154 23.7642 12.4571 23.7153 12.4115 23.6555C12.3658 23.5958 12.3338 23.5268 12.3177 23.4533C12.2876 23.3924 12.2713 23.3256 12.2697 23.2577C12.2681 23.1898 12.2813 23.1224 12.3084 23.0601C12.3356 22.9978 12.376 22.9422 12.4268 22.8971C12.4776 22.8521 12.5376 22.8186 12.6027 22.7991C12.6659 22.7847 12.7229 22.7508 12.7657 22.7021C12.8084 22.6535 12.8348 22.5926 12.841 22.5281C12.841 22.4206 12.9018 22.3131 12.9298 22.2244L12.0279 21.8038C11.9905 21.7885 11.9486 21.7885 11.9111 21.8038C11.6167 21.9814 11.3223 22.1543 11.042 22.3505C10.9812 22.3926 10.9625 22.5234 10.9579 22.6122C10.9572 22.7877 10.901 22.9585 10.7973 23.1001C10.6936 23.2418 10.5478 23.347 10.3808 23.4007C10.2137 23.4545 10.0339 23.454 9.86709 23.3993C9.70031 23.3447 9.55508 23.2387 9.4522 23.0965C9.34932 22.9543 9.29405 22.7832 9.29431 22.6077C9.29457 22.4322 9.35034 22.2612 9.45364 22.1193C9.55694 21.9774 9.70248 21.8719 9.86942 21.8177C10.0364 21.7635 10.2162 21.7636 10.3831 21.8178C10.4299 21.8403 10.4829 21.8465 10.5337 21.8355C10.5845 21.8245 10.6301 21.7969 10.6635 21.7571C10.8737 21.5468 11.0934 21.3458 11.313 21.1402C11.2149 20.9627 11.1074 20.7898 11.0279 20.6122C10.9485 20.4346 10.8878 20.243 10.813 20.0374C10.5279 20.0374 10.2242 20.0795 9.92515 20.1122C9.88309 20.1122 9.83636 20.187 9.80832 20.2384C9.75744 20.3459 9.67984 20.4387 9.58293 20.5077C9.48602 20.5768 9.37303 20.6198 9.25474 20.6328C9.13646 20.6457 9.01683 20.6281 8.90727 20.5817C8.7977 20.5353 8.70187 20.4616 8.62891 20.3676C8.55595 20.2736 8.5083 20.1624 8.4905 20.0448C8.4727 19.9271 8.48535 19.8069 8.52725 19.6955C8.56914 19.5841 8.63888 19.4854 8.72981 19.4086C8.82073 19.3318 8.92982 19.2797 9.04664 19.2571C9.15533 19.2301 9.26929 19.2333 9.37631 19.2663C9.48332 19.2992 9.57936 19.3606 9.65412 19.444C9.68684 19.4846 9.73222 19.5131 9.78303 19.525C9.83384 19.5369 9.88716 19.5314 9.93449 19.5094C10.1681 19.4346 10.4018 19.3879 10.6448 19.3085C10.6798 19.2959 10.7116 19.2755 10.7375 19.2488C10.7634 19.222 10.7829 19.1897 10.7943 19.1543C10.8504 18.944 10.8878 18.7244 10.9345 18.4814C10.6261 18.3085 10.2943 18.1216 9.96253 17.944C9.92514 17.944 9.84571 17.944 9.79898 17.9767C9.68935 18.0554 9.55778 18.0978 9.42281 18.0978C9.28784 18.0978 9.15627 18.0554 9.04664 17.9767C8.93226 17.9076 8.84321 17.8034 8.79271 17.6797C8.7422 17.5559 8.73293 17.4192 8.76627 17.2898C8.78828 17.1597 8.84992 17.0397 8.94277 16.946C9.03561 16.8523 9.15512 16.7896 9.28496 16.7664C9.45031 16.7266 9.62468 16.7533 9.77059 16.8407C9.91651 16.928 10.0223 17.0692 10.0653 17.2337C10.074 17.2911 10.1002 17.3443 10.1403 17.3862C10.1805 17.428 10.2327 17.4564 10.2896 17.4673C10.5934 17.5561 10.8924 17.6589 11.1962 17.7524C11.2218 17.7642 11.2497 17.7702 11.2779 17.7702C11.3062 17.7702 11.3341 17.7642 11.3597 17.7524C11.5934 17.5421 11.827 17.3178 12.0607 17.0842C11.9251 16.8552 11.7803 16.6169 11.5934 16.3505C11.5653 16.3038 11.4579 16.2898 11.3831 16.2898C11.246 16.285 11.1135 16.2396 11.0023 16.1593C10.8912 16.079 10.8064 15.9675 10.7587 15.8389C10.7111 15.7103 10.7027 15.5705 10.7347 15.4371C10.7668 15.3038 10.8377 15.183 10.9385 15.09C11.0394 14.9971 11.1656 14.9363 11.3011 14.9152C11.4366 14.8942 11.5753 14.9139 11.6996 14.9718C11.8238 15.0298 11.9281 15.1234 11.999 15.2408C12.07 15.3581 12.1044 15.4939 12.098 15.6309C12.098 15.6309 12.098 15.673 12.098 15.687C11.9625 15.9206 12.098 16.0655 12.2569 16.2197C12.4158 16.3739 12.5279 16.5234 12.6728 16.687C12.6935 16.7058 12.7179 16.7201 12.7445 16.729C12.771 16.7378 12.7991 16.741 12.827 16.7384C13.1588 16.5748 13.4906 16.3973 13.8223 16.2244C13.7803 16.0655 13.7382 15.9159 13.7055 15.7571C13.6971 15.6658 13.662 15.5791 13.6047 15.5077C13.5474 15.4362 13.4703 15.3832 13.3831 15.3552C13.3114 15.3242 13.2471 15.2784 13.1945 15.2207C13.1418 15.163 13.102 15.0948 13.0777 15.0206C13.0534 14.9463 13.0452 14.8678 13.0535 14.7902C13.0619 14.7125 13.0866 14.6375 13.1261 14.5701C13.1615 14.5025 13.21 14.4425 13.2687 14.3936C13.3273 14.3448 13.3951 14.308 13.4681 14.2854C13.541 14.2628 13.6177 14.2549 13.6938 14.2621C13.7698 14.2692 13.8437 14.2913 13.9111 14.3272C13.9811 14.3613 14.0433 14.4097 14.0935 14.4692C14.1438 14.5288 14.1811 14.5981 14.2031 14.6728C14.2251 14.7476 14.2312 14.8261 14.2212 14.9033C14.2112 14.9806 14.1851 15.0549 14.1448 15.1215C14.1102 15.1682 14.0916 15.2247 14.0916 15.2828C14.0916 15.3408 14.1102 15.3973 14.1448 15.444C14.2289 15.5935 14.299 15.7477 14.3878 15.9113L15.4906 15.3458C15.4298 15.1402 15.3737 14.9346 15.3036 14.7337C15.3036 14.701 15.2195 14.6776 15.1681 14.6636C15.1015 14.6421 15.0399 14.6074 14.9871 14.5615C14.9342 14.5157 14.8912 14.4595 14.8606 14.3966C14.83 14.3336 14.8125 14.2651 14.8091 14.1952C14.8056 14.1253 14.8164 14.0555 14.8407 13.9898C14.865 13.9242 14.9023 13.8641 14.9505 13.8133C14.9986 13.7625 15.0565 13.7219 15.1207 13.6941C15.1849 13.6662 15.2541 13.6516 15.3241 13.6512C15.3941 13.6508 15.4634 13.6645 15.5279 13.6916C15.5929 13.7215 15.6509 13.7648 15.6981 13.8185C15.7452 13.8723 15.7806 13.9354 15.8017 14.0037C15.8229 14.0721 15.8294 14.1441 15.8209 14.2151C15.8124 14.2861 15.789 14.3546 15.7522 14.4159C15.7261 14.4502 15.7119 14.492 15.7119 14.5351C15.7119 14.5782 15.7261 14.62 15.7522 14.6543C15.8317 14.7898 15.8971 14.9346 15.9765 15.0842C16.2896 14.93 16.598 14.7851 16.9111 14.6169C16.9392 14.6169 16.9579 14.5468 16.9625 14.5094C16.9625 14.1215 17.0139 13.7337 17.0233 13.3458C17.0057 13.2738 16.9604 13.2116 16.8971 13.173C16.7725 13.0945 16.676 12.9786 16.6214 12.8419C16.5668 12.7051 16.557 12.5546 16.5933 12.4119C16.6296 12.2692 16.7103 12.1417 16.8236 12.0477C16.9369 11.9538 17.0772 11.8981 17.2241 11.8888C17.371 11.8795 17.5171 11.9171 17.6414 11.996C17.7657 12.075 17.8617 12.1913 17.9157 12.3283C17.9698 12.4653 17.979 12.6158 17.942 12.7584C17.9051 12.9009 17.8239 13.028 17.7102 13.1215C17.6689 13.1488 17.637 13.1881 17.6186 13.234C17.6002 13.2799 17.5963 13.3303 17.6074 13.3786C17.6354 13.5561 17.6588 13.729 17.6868 13.9066C17.7149 14.0842 17.7429 14.243 17.7616 14.3739L19.1027 14.6262C19.2289 14.444 19.3924 14.229 19.5326 14.0047C19.5602 13.9357 19.5602 13.8588 19.5326 13.7898C19.5013 13.7117 19.486 13.6281 19.4877 13.5439C19.4894 13.4598 19.508 13.3769 19.5425 13.3001C19.5769 13.2234 19.6265 13.1543 19.6882 13.0972C19.75 13.04 19.8226 12.9958 19.9018 12.9673C19.9805 12.9381 20.0643 12.925 20.1482 12.9291C20.2321 12.9331 20.3143 12.9541 20.3899 12.9908C20.4655 13.0275 20.5328 13.0791 20.5878 13.1425C20.6429 13.206 20.6845 13.2799 20.7102 13.3599C20.7401 13.4432 20.7515 13.5321 20.7434 13.6203C20.7354 13.7085 20.7081 13.7939 20.6636 13.8705C20.6191 13.9471 20.5584 14.013 20.4857 14.0636C20.413 14.1143 20.3302 14.1484 20.2429 14.1636C20.179 14.1684 20.118 14.1923 20.068 14.2324C20.018 14.2724 19.9812 14.3266 19.9625 14.3879C19.8784 14.5982 19.7756 14.8038 19.6868 15.0001L20.3691 15.7851C20.6681 15.701 20.9952 15.6075 21.3036 15.5001C21.3504 15.5001 21.3878 15.3926 21.4065 15.3318C21.453 15.1774 21.5539 15.045 21.6905 14.9591C21.827 14.8732 21.9901 14.8396 22.1494 14.8645C22.2988 14.8834 22.437 14.9533 22.5409 15.0622C22.6447 15.1712 22.7078 15.3126 22.7195 15.4627C22.7375 15.6254 22.695 15.7891 22.6003 15.9226C22.5055 16.0561 22.365 16.1502 22.2055 16.187C22.0942 16.21 21.979 16.2064 21.8693 16.1763C21.7597 16.1463 21.6587 16.0907 21.5747 16.0141L20.7055 16.4814C20.6846 16.4956 20.667 16.5143 20.6541 16.5361C20.6412 16.5579 20.6332 16.5823 20.6308 16.6075C20.6308 16.8412 20.6962 17.0748 20.6915 17.3085C20.6746 17.5466 20.645 17.7837 20.6027 18.0187C20.7429 18.0748 20.8924 18.1402 21.0466 18.187C21.1001 18.193 21.1537 18.1779 21.1962 18.1449C21.2524 18.1011 21.3172 18.0694 21.3863 18.0519C21.4554 18.0344 21.5275 18.0316 21.5978 18.0434C21.6681 18.0553 21.7352 18.0817 21.7948 18.1208C21.8543 18.16 21.9051 18.2112 21.9438 18.2711C21.9804 18.3292 22.0048 18.3941 22.0154 18.4619C22.026 18.5297 22.0227 18.599 22.0056 18.6655C21.9886 18.7319 21.9581 18.7942 21.9162 18.8486C21.8742 18.9029 21.8216 18.9481 21.7616 18.9814C21.6955 19.0173 21.6224 19.0383 21.5473 19.0429C21.4722 19.0475 21.397 19.0356 21.3271 19.008C21.2571 18.9803 21.194 18.9377 21.1424 18.883C21.0907 18.8284 21.0516 18.763 21.0279 18.6916C20.9815 18.6308 20.9155 18.5879 20.841 18.5701C20.7006 18.5392 20.5587 18.5158 20.4158 18.5001L19.598 19.4346C19.7803 19.687 19.9812 19.972 20.1915 20.2524C20.2195 20.2898 20.3083 20.2991 20.3644 20.2944C20.5456 20.2715 20.729 20.3153 20.8804 20.4176C21.0317 20.5199 21.1406 20.6738 21.1868 20.8505C21.2343 21.0202 21.22 21.2012 21.1464 21.3612C21.0728 21.5213 20.9447 21.65 20.785 21.7244C20.6593 21.7871 20.518 21.8117 20.3785 21.7951C20.2389 21.7785 20.1074 21.7214 19.9999 21.6309C19.8838 21.5503 19.796 21.4351 19.749 21.3017C19.702 21.1683 19.6982 21.0235 19.7382 20.8879C19.7575 20.8354 19.7587 20.778 19.7418 20.7247C19.7249 20.6715 19.6908 20.6253 19.6448 20.5935C19.4018 20.3739 19.1775 20.1262 18.9205 19.9206C18.8947 19.8996 18.8644 19.8849 18.832 19.8776C18.7995 19.8703 18.7658 19.8706 18.7336 19.8786C18.3036 20.0888 17.8784 20.3131 17.4298 20.5468C17.57 20.8505 17.7055 21.1449 17.8551 21.4393C17.8551 21.4767 17.9579 21.4954 18.0139 21.5001C18.2003 21.5074 18.3762 21.5881 18.5031 21.7247C18.6301 21.8613 18.6978 22.0426 18.6915 22.229C18.6813 22.3982 18.6114 22.5583 18.4941 22.6807C18.3768 22.8031 18.2199 22.8798 18.0513 22.8973C17.8777 22.9218 17.7013 22.878 17.5593 22.7752C17.4172 22.6724 17.3206 22.5185 17.2896 22.3458C17.2908 22.2042 17.308 22.0631 17.341 21.9253C17.341 21.8599 17.3644 21.7804 17.341 21.7384C17.1541 21.4673 16.9579 21.2057 16.7522 20.93C16.3551 21.1402 15.9579 21.3365 15.57 21.5468C15.5448 21.5659 15.5245 21.5906 15.5107 21.6191C15.4969 21.6475 15.49 21.6787 15.4906 21.7103C15.5466 22.0421 15.6027 22.3692 15.6775 22.6963C15.6906 22.7316 15.7111 22.7636 15.7378 22.7902C15.7644 22.8169 15.7964 22.8374 15.8317 22.8505C15.9831 22.9114 16.1097 23.0213 16.1913 23.1627C16.2728 23.3041 16.3045 23.4688 16.2814 23.6303C16.2582 23.7919 16.1815 23.941 16.0635 24.0538C15.9456 24.1666 15.7932 24.2365 15.6308 24.2524C15.4617 24.2587 15.2957 24.2056 15.1617 24.1023C15.0277 23.999 14.9341 23.8521 14.8971 23.687C14.8698 23.5754 14.8701 23.4588 14.8977 23.3473C14.9254 23.2358 14.9797 23.1327 15.056 23.0468C15.0809 22.997 15.0967 22.9432 15.1027 22.8879C15.0975 22.8631 15.088 22.8394 15.0747 22.8178L14.7522 22.0328Z" fill="#BD1622"/>
<path d="M33.4953 26.0561C33.8465 26.3076 34.1265 26.6456 34.3084 27.0374C34.458 26.9953 34.5935 26.9626 34.7243 26.9112C34.7647 26.8777 34.7927 26.8317 34.8038 26.7804C34.8197 26.6879 34.8645 26.6029 34.9318 26.5375C34.9991 26.472 35.0853 26.4296 35.1782 26.4163C35.2711 26.403 35.3658 26.4194 35.4487 26.4633C35.5317 26.5071 35.5986 26.5762 35.6399 26.6604C35.6812 26.7447 35.6947 26.8398 35.6785 26.9323C35.6623 27.0247 35.6173 27.1096 35.5499 27.1748C35.4824 27.2401 35.3961 27.2822 35.3031 27.2953C35.2102 27.3084 35.1156 27.2917 35.0327 27.2477C34.971 27.2243 34.9029 27.2243 34.8411 27.2477C34.715 27.3131 34.5982 27.3925 34.5 27.4533V28.5561C34.7664 28.6215 35.0701 28.7009 35.3785 28.7663C35.4159 28.7663 35.4767 28.7149 35.514 28.6729C35.6098 28.5749 35.7337 28.5092 35.8685 28.4849C36.0034 28.4606 36.1425 28.4789 36.2664 28.5374C36.3873 28.5935 36.4881 28.6855 36.555 28.8008C36.6219 28.9162 36.6516 29.0494 36.6402 29.1822C36.6316 29.3163 36.5823 29.4446 36.4988 29.5498C36.4152 29.655 36.3015 29.7322 36.1729 29.771C36.0238 29.813 35.8649 29.8031 35.7222 29.7428C35.5795 29.6825 35.4616 29.5754 35.3879 29.4392C35.372 29.4112 35.3498 29.3873 35.323 29.3695C35.2962 29.3516 35.2656 29.3403 35.2337 29.3364C34.9299 29.3131 34.6262 29.2991 34.2991 29.2897C34.272 29.2905 34.2455 29.2973 34.2213 29.3094C34.1971 29.3215 34.1758 29.3387 34.1589 29.3598C33.9907 29.7523 33.8318 30.1495 33.6682 30.5514C33.9346 30.6729 34.1823 30.7897 34.4393 30.8925C34.4813 30.8925 34.5608 30.8925 34.6122 30.8458C34.7102 30.7762 34.8267 30.7373 34.9469 30.734C35.067 30.7307 35.1855 30.7631 35.2872 30.8272C35.3889 30.8912 35.4694 30.984 35.5184 31.0937C35.5674 31.2035 35.5827 31.3253 35.5624 31.4438C35.5421 31.5623 35.4871 31.6721 35.4044 31.7593C35.3216 31.8465 35.2149 31.9073 35.0977 31.9338C34.9804 31.9603 34.8579 31.9515 34.7457 31.9083C34.6335 31.8652 34.5366 31.7898 34.4673 31.6916C34.4673 31.6635 34.4206 31.6355 34.4206 31.6075C34.4206 31.4065 34.2617 31.3598 34.0935 31.3318C33.9253 31.3037 33.6262 31.2336 33.4159 31.1776L32.9486 32.3458C33.2103 32.5607 33.472 32.7757 33.7383 32.9813C33.7804 33.0093 33.8739 32.9813 33.9346 32.9813C34.0834 32.9316 34.2452 32.9379 34.3897 32.999C34.5343 33.0601 34.6515 33.1717 34.7196 33.3131C34.7852 33.4509 34.7986 33.6078 34.7574 33.7547C34.7162 33.9016 34.6231 34.0286 34.4953 34.1121C34.4008 34.1714 34.2915 34.2029 34.1799 34.2029C34.0683 34.2029 33.959 34.1714 33.8645 34.1121C33.763 34.0653 33.6772 33.99 33.6176 33.8955C33.5579 33.801 33.5268 33.6912 33.5281 33.5794C33.5338 33.5371 33.5249 33.4941 33.5028 33.4575C33.4807 33.4209 33.4467 33.3931 33.4066 33.3785C33.1776 33.2663 32.9393 33.1402 32.7243 33.0234L32.0608 33.8364C32.0608 33.8364 32.014 33.8972 32.0187 33.9205C32.0561 34.1075 32.0982 34.2991 32.1496 34.486C32.1496 34.514 32.2196 34.528 32.2617 34.542C32.3332 34.5523 32.4013 34.579 32.4607 34.62C32.5201 34.661 32.5692 34.7152 32.6041 34.7783C32.6391 34.8415 32.6589 34.9118 32.6621 34.984C32.6653 35.0561 32.6517 35.1279 32.6225 35.1939C32.5933 35.2599 32.5491 35.3182 32.4936 35.3643C32.438 35.4104 32.3725 35.4429 32.3023 35.4595C32.232 35.476 32.1589 35.476 32.0886 35.4595C32.0183 35.4431 31.9528 35.4105 31.8972 35.3645C31.8431 35.3364 31.7954 35.2974 31.7571 35.2498C31.7189 35.2023 31.691 35.1474 31.6751 35.0885C31.6593 35.0296 31.6559 34.968 31.6652 34.9077C31.6745 34.8474 31.6962 34.7897 31.729 34.7383C31.754 34.6992 31.7672 34.6538 31.7672 34.6075C31.7672 34.5611 31.754 34.5157 31.729 34.4766C31.6776 34.3785 31.6309 34.2804 31.5841 34.1776C31.2991 34.2617 31.0327 34.3411 30.7664 34.4299C30.7476 34.4394 30.7309 34.4526 30.7173 34.4686C30.7036 34.4847 30.6933 34.5033 30.6869 34.5234C30.5841 34.8318 30.4907 35.1448 30.3925 35.4579C30.526 35.5611 30.6216 35.7054 30.6647 35.8684C30.7078 36.0315 30.6959 36.2042 30.6309 36.3598C30.5826 36.4694 30.5081 36.5654 30.4139 36.6393C30.3198 36.7132 30.2089 36.7629 30.091 36.7838C29.9731 36.8047 29.8519 36.7962 29.738 36.7591C29.6242 36.7221 29.5212 36.6575 29.4383 36.5712C29.3553 36.4849 29.2948 36.3795 29.2623 36.2643C29.2297 36.1491 29.226 36.0277 29.2515 35.9107C29.277 35.7937 29.3309 35.6848 29.4085 35.5936C29.4861 35.5024 29.5849 35.4318 29.6963 35.3878C29.7398 35.3744 29.7776 35.347 29.8038 35.3098C29.83 35.2726 29.8432 35.2277 29.8411 35.1822C29.8411 34.9579 29.8832 34.7149 29.9159 34.5093C29.9159 34.4252 29.9159 34.3972 29.8225 34.3691C29.5374 34.2523 29.2524 34.1262 28.9439 33.9906C28.7897 34.1402 28.6028 34.3177 28.4253 34.5047C28.4037 34.557 28.4037 34.6158 28.4253 34.6682C28.461 34.8119 28.4439 34.9637 28.377 35.0959C28.31 35.228 28.1978 35.3316 28.0608 35.3878C27.922 35.4483 27.7653 35.4535 27.6228 35.4022C27.4804 35.3509 27.3629 35.2472 27.2944 35.1121C27.2418 35.023 27.2141 34.9213 27.2141 34.8177C27.2141 34.7142 27.2418 34.6125 27.2944 34.5234C27.3456 34.4263 27.4244 34.3465 27.5209 34.2941C27.6173 34.2417 27.7271 34.2191 27.8365 34.229C27.886 34.2397 27.9377 34.233 27.9828 34.21C28.0279 34.187 28.0637 34.1492 28.0841 34.1028C28.215 33.8878 28.3645 33.6869 28.4953 33.4906L28.1589 32.8645C27.8458 32.9299 27.5234 32.9906 27.2243 33.0654C27.1823 33.0654 27.1496 33.1542 27.1309 33.2056C27.0849 33.3319 26.9971 33.4386 26.8821 33.5081C26.7671 33.5777 26.6318 33.6057 26.4987 33.5877C26.3655 33.5697 26.2425 33.5067 26.1501 33.4091C26.0577 33.3116 26.0014 33.1853 25.9907 33.0514C25.9787 32.9119 26.0168 32.7728 26.0982 32.6589C26.1795 32.545 26.2988 32.4638 26.4346 32.4299C26.5151 32.4094 26.5993 32.408 26.6804 32.4259C26.7616 32.4437 26.8374 32.4803 26.9019 32.5327C26.9341 32.5628 26.975 32.5817 27.0188 32.5868C27.0625 32.5918 27.1067 32.5827 27.1449 32.5607L27.6122 32.3738L28.0374 32.1963L28.1496 31.2617C27.9206 31.1869 27.6823 31.0981 27.4253 31.028C27.3832 31.028 27.3084 31.0607 27.2664 31.0981C27.2045 31.1499 27.133 31.1889 27.056 31.2129C26.979 31.237 26.898 31.2455 26.8176 31.2381C26.7373 31.2308 26.6592 31.2076 26.5878 31.1699C26.5165 31.1322 26.4533 31.0809 26.4019 31.0187C26.3461 30.951 26.3057 30.8721 26.2833 30.7873C26.2609 30.7026 26.2571 30.614 26.2722 30.5276C26.2873 30.4412 26.3209 30.3592 26.3708 30.287C26.4206 30.2149 26.4854 30.1544 26.5609 30.1097C26.6363 30.065 26.7205 30.0371 26.8077 30.0281C26.8949 30.019 26.983 30.0289 27.066 30.0571C27.149 30.0853 27.225 30.1311 27.2886 30.1914C27.3522 30.2518 27.402 30.3251 27.4346 30.4065C27.4451 30.4452 27.4684 30.4791 27.5006 30.5029C27.5328 30.5266 27.5722 30.5388 27.6122 30.5374C27.8458 30.5654 28.0795 30.6028 28.3178 30.6262C28.3447 30.6273 28.3714 30.6219 28.3958 30.6105C28.4202 30.5991 28.4415 30.5821 28.458 30.5607C28.5841 30.2663 28.701 29.9673 28.8225 29.6635C28.6496 29.5467 28.486 29.4206 28.3084 29.3224C28.2524 29.2897 28.1542 29.3224 28.0841 29.3224C27.9837 29.3575 27.8748 29.3596 27.7731 29.3285C27.6715 29.2974 27.5823 29.2347 27.5187 29.1495C27.4584 29.0698 27.4228 28.9741 27.4165 28.8743C27.4102 28.7745 27.4334 28.675 27.4832 28.5883C27.533 28.5016 27.6073 28.4315 27.6967 28.3867C27.7861 28.3419 27.8867 28.3244 27.986 28.3364C28.0897 28.3468 28.1869 28.3915 28.2623 28.4635C28.3376 28.5354 28.3868 28.6305 28.4019 28.7336C28.4037 28.7852 28.4226 28.8348 28.4556 28.8745C28.4886 28.9142 28.5338 28.9419 28.5841 28.9533L28.9673 29.1121H29.0187L29.4393 28.1869L29.215 28.0374C29.0701 27.9486 28.958 27.8364 28.7477 27.9346C28.6902 27.952 28.6296 27.9569 28.5701 27.949C28.5105 27.941 28.4534 27.9204 28.4025 27.8886C28.3516 27.8567 28.3081 27.8143 28.2749 27.7642C28.2418 27.7141 28.2197 27.6574 28.2103 27.5981C28.1893 27.4801 28.2144 27.3585 28.2805 27.2585C28.3466 27.1584 28.4486 27.0876 28.5654 27.0607C28.6868 27.0389 28.812 27.0659 28.9135 27.136C29.015 27.206 29.0848 27.3133 29.1075 27.4346C29.1138 27.4608 29.1253 27.4855 29.1414 27.5072C29.1575 27.5288 29.1777 27.5471 29.201 27.5607C29.3397 27.6256 29.4816 27.6833 29.6262 27.7336C29.743 27.4533 29.8645 27.1822 29.9767 26.9065C29.9767 26.8785 29.9767 26.8224 29.9393 26.7944C29.743 26.528 29.5374 26.2663 29.3318 26.0047C29.3118 25.9862 29.2882 25.9721 29.2624 25.9632C29.2367 25.9544 29.2094 25.951 29.1823 25.9533C29.0306 25.9799 28.8744 25.9492 28.744 25.8671C28.6136 25.7851 28.5184 25.6576 28.4767 25.5093C28.4417 25.3651 28.4604 25.2131 28.5291 25.0816C28.5979 24.95 28.7121 24.848 28.8505 24.7944C28.9225 24.7639 28.9999 24.7481 29.0781 24.7478C29.1563 24.7476 29.2337 24.7629 29.306 24.7929C29.3782 24.8229 29.4437 24.867 29.4987 24.9226C29.5536 24.9783 29.597 25.0443 29.6262 25.1168C29.6538 25.2394 29.6648 25.3651 29.6589 25.4906C29.6589 25.542 29.6589 25.6075 29.6869 25.6355C29.9066 25.8364 30.1542 26.0327 30.3598 26.229L30.4066 26.2617L31.4346 25.6682C31.4346 25.4813 31.4066 25.2523 31.3785 25.0234C31.3552 24.96 31.3084 24.9081 31.2477 24.8785C31.1417 24.8274 31.0552 24.7433 31.0013 24.6388C30.9473 24.5342 30.9289 24.415 30.9486 24.2991C30.9637 24.1885 31.0122 24.0853 31.0876 24.0031C31.1631 23.921 31.2618 23.8638 31.3707 23.8394C31.4795 23.815 31.5932 23.8245 31.6965 23.8665C31.7998 23.9086 31.8878 23.9813 31.9486 24.0748C32.0182 24.1796 32.0506 24.3048 32.0404 24.4303C32.0302 24.5557 31.9781 24.6741 31.8925 24.7663C31.854 24.8241 31.8374 24.8937 31.8458 24.9626C31.8832 25.1495 31.9486 25.3271 31.9953 25.5093C31.9953 25.5934 32.0514 25.6168 32.1449 25.6262C32.3649 25.6467 32.5834 25.6811 32.7991 25.729C32.8315 25.7405 32.867 25.7398 32.8989 25.7269C32.9308 25.7139 32.9568 25.6897 32.972 25.6589C33.0982 25.4579 33.2383 25.2617 33.3598 25.0561C33.3737 25.0236 33.3809 24.9886 33.3809 24.9533C33.3809 24.9179 33.3737 24.883 33.3598 24.8505C33.2925 24.7121 33.2807 24.5532 33.3267 24.4064C33.3728 24.2595 33.4732 24.1359 33.6075 24.0607C33.7451 23.9858 33.9068 23.9685 34.0571 24.0128C34.2074 24.057 34.3339 24.1592 34.4089 24.2967C34.4839 24.4343 34.5011 24.596 34.4569 24.7463C34.4126 24.8966 34.3105 25.0231 34.1729 25.0981C34.1149 25.1336 34.0492 25.1544 33.9813 25.1589C33.8692 25.1589 33.8225 25.2149 33.7851 25.3131C33.701 25.5561 33.5982 25.7991 33.4953 26.0561Z" fill="#BD1622"/>
<path d="M22.986 35.4486C22.9851 36.1795 22.7675 36.8936 22.3608 37.5009C21.9541 38.1081 21.3765 38.5811 20.701 38.8602C20.0255 39.1392 19.2825 39.2118 18.5658 39.0686C17.8491 38.9255 17.1909 38.5731 16.6745 38.0559C16.158 37.5388 15.8064 36.8802 15.6642 36.1633C15.5219 35.4465 15.5954 34.7035 15.8753 34.0284C16.1552 33.3532 16.629 32.7762 17.2367 32.3703C17.8445 31.9643 18.5589 31.7477 19.2898 31.7477C20.2645 31.768 21.1936 32.1646 21.8826 32.8544C22.5715 33.5443 22.9669 34.4738 22.986 35.4486ZM19.2898 32.5514C18.7174 32.5523 18.158 32.7228 17.6824 33.0413C17.2068 33.3598 16.8362 33.8121 16.6173 34.341C16.3985 34.8699 16.3413 35.4518 16.4528 36.0133C16.5644 36.5747 16.8397 37.0905 17.2442 37.4956C17.6486 37.9007 18.164 38.1769 18.7252 38.2893C19.2865 38.4018 19.8685 38.3455 20.3978 38.1275C20.927 37.9095 21.3799 37.5396 21.6992 37.0645C22.0184 36.5894 22.1898 36.0304 22.1916 35.458C22.2012 35.074 22.1328 34.6922 21.9904 34.3355C21.848 33.9788 21.6347 33.6548 21.3634 33.383C21.092 33.1113 20.7683 32.8974 20.4119 32.7545C20.0554 32.6115 19.6737 32.5424 19.2898 32.5514Z" fill="#BD1622"/>
<path d="M37.1122 18.0981C36.6648 18.0981 36.2357 18.2759 35.9194 18.5922C35.603 18.9086 35.4253 19.3377 35.4253 19.7851C35.4253 20.2325 35.603 20.6615 35.9194 20.9779C36.2357 21.2942 36.6648 21.472 37.1122 21.472C37.5596 21.472 37.9887 21.2942 38.305 20.9779C38.6214 20.6615 38.7991 20.2325 38.7991 19.7851C38.7991 19.3377 38.6214 18.9086 38.305 18.5922C37.9887 18.2759 37.5596 18.0981 37.1122 18.0981ZM37.4487 20.9439C37.2989 20.9439 37.1526 20.8995 37.0281 20.8164C36.9036 20.7332 36.8066 20.6149 36.7493 20.4766C36.692 20.3383 36.677 20.1861 36.7062 20.0392C36.7354 19.8924 36.8075 19.7575 36.9134 19.6516C37.0192 19.5458 37.1541 19.4737 37.301 19.4445C37.4478 19.4153 37.6 19.4302 37.7384 19.4875C37.8767 19.5448 37.9949 19.6419 38.0781 19.7664C38.1613 19.8908 38.2057 20.0372 38.2057 20.1869C38.2111 20.2878 38.1952 20.3886 38.159 20.4829C38.1229 20.5772 38.0673 20.6628 37.9959 20.7342C37.9245 20.8056 37.8389 20.8612 37.7446 20.8973C37.6503 20.9334 37.5495 20.9493 37.4487 20.9439Z" fill="#BD1622"/>
<path d="M19.8738 34.2289C20.0257 34.2264 20.1765 34.2544 20.3174 34.3112C20.4583 34.368 20.5863 34.4525 20.6939 34.5597C20.8015 34.6669 20.8866 34.7946 20.9439 34.9352C21.0013 35.0759 21.0299 35.2266 21.028 35.3784C21.0256 35.6821 20.9035 35.9726 20.6884 36.1869C20.4732 36.4012 20.1822 36.5221 19.8785 36.5233C19.5743 36.5172 19.2846 36.3927 19.0708 36.1763C18.857 35.9599 18.736 35.6686 18.7336 35.3644C18.7361 35.0632 18.8572 34.7751 19.0706 34.5626C19.284 34.35 19.5726 34.2301 19.8738 34.2289Z" fill="#BD1622"/>
<path d="M27.1027 8.87854C27.8924 8.90106 28.6434 9.22577 29.2007 9.7857C29.758 10.3456 30.0792 11.0981 30.0981 11.8879C30.114 12.2921 30.0482 12.6954 29.9045 13.0736C29.7608 13.4518 29.5422 13.797 29.2618 14.0887C28.9815 14.3803 28.6451 14.6123 28.2729 14.7708C27.9007 14.9293 27.5003 15.011 27.0957 15.011C26.6912 15.011 26.2908 14.9293 25.9186 14.7708C25.5464 14.6123 25.21 14.3803 24.9296 14.0887C24.6493 13.797 24.4307 13.4518 24.287 13.0736C24.1433 12.6954 24.0775 12.2921 24.0934 11.8879C24.1112 11.0954 24.434 10.3402 24.9946 9.77971C25.5551 9.21917 26.3102 8.89638 27.1027 8.87854ZM29.2336 11.8785C29.229 11.4559 29.0993 11.0441 28.8609 10.695C28.6226 10.3459 28.2862 10.0753 27.8942 9.91714C27.5022 9.75901 27.0721 9.7205 26.6583 9.80646C26.2444 9.89242 25.8653 10.099 25.5687 10.4002C25.2721 10.7013 25.0713 11.0835 24.9917 11.4987C24.912 11.9138 24.9571 12.3432 25.1212 12.7327C25.2853 13.1223 25.561 13.4545 25.9137 13.6875C26.2663 13.9205 26.6801 14.0439 27.1027 14.0421C27.3869 14.0512 27.6698 14.0019 27.9342 13.8973C28.1985 13.7928 28.4386 13.6351 28.6396 13.4341C28.8406 13.2331 28.9983 12.993 29.1029 12.7287C29.2074 12.4643 29.2567 12.1814 29.2476 11.8972L29.2336 11.8785Z" fill="#BD1622"/>
<path d="M28.1543 11.8224C28.1543 12.0001 28.1015 12.1737 28.0027 12.3214C27.9039 12.469 27.7635 12.584 27.5993 12.6518C27.4351 12.7195 27.2545 12.737 27.0803 12.702C26.9061 12.667 26.7463 12.5811 26.621 12.4552C26.4957 12.3292 26.4106 12.1689 26.3765 11.9946C26.3424 11.8202 26.3609 11.6397 26.4295 11.4758C26.4981 11.312 26.6139 11.1722 26.762 11.0741C26.9102 10.9761 27.0841 10.9243 27.2617 10.9252C27.3797 10.924 27.4967 10.9463 27.6059 10.991C27.715 11.0357 27.8141 11.1019 27.8973 11.1855C27.9805 11.2691 28.0461 11.3686 28.0902 11.478C28.1344 11.5873 28.1561 11.7045 28.1543 11.8224Z" fill="#BD1622"/>
<path d="M7.8692 37.1776C7.68629 37.1778 7.50772 37.122 7.35739 37.0178C7.20707 36.9136 7.09219 36.7659 7.02813 36.5946C6.96408 36.4233 6.95391 36.2365 6.999 36.0592C7.04409 35.882 7.14228 35.7227 7.28041 35.6028L38.0094 8.92528C38.1891 8.76912 38.4235 8.69075 38.6609 8.7074C38.8984 8.72405 39.1196 8.83436 39.2757 9.01406C39.4319 9.19377 39.5103 9.42814 39.4936 9.66563C39.477 9.90312 39.3667 10.1243 39.187 10.2804L8.45798 36.958C8.29461 37.0998 8.08552 37.1778 7.8692 37.1776Z" fill="#BD1622"/>
</svg>
