<svg width="48" height="48" viewBox="0 0 48 48" fill="none" xmlns="http://www.w3.org/2000/svg">
<path d="M42.6168 0H5.38318C2.41013 0 0 2.41013 0 5.38318V42.6168C0 45.5899 2.41013 48 5.38318 48H42.6168C45.5899 48 48 45.5899 48 42.6168V5.38318C48 2.41013 45.5899 0 42.6168 0Z" fill="#ECECEC"/>
<path d="M30.1541 42.8692C37.819 42.8692 44.0326 36.6556 44.0326 28.9907C44.0326 21.3258 37.819 15.1122 30.1541 15.1122C22.4893 15.1122 16.2756 21.3258 16.2756 28.9907C16.2756 36.6556 22.4893 42.8692 30.1541 42.8692Z" fill="white"/>
<path d="M31.5936 17.028C31.7151 17.2196 31.8459 17.4018 31.9674 17.5934C32.5486 18.459 32.909 19.4536 33.0174 20.4905C33.1257 21.5274 32.9786 22.5751 32.5889 23.542C32.0901 24.7567 31.7934 26.0447 31.7104 27.3551C31.7104 27.5888 31.7104 27.8224 31.7104 28.0514C31.7104 28.1308 31.7104 28.2149 31.7104 28.2944C31.7877 28.9139 31.993 29.5107 32.3132 30.0467C32.3934 30.2076 32.5162 30.3434 32.6683 30.4392C32.7384 30.4993 32.8117 30.5555 32.888 30.6074C33.6403 31.0373 34.4908 30.6962 34.5796 29.9299C34.5708 29.3765 34.4697 28.8285 34.2805 28.3084C33.9327 27.4084 33.7095 26.4651 33.6169 25.5046C33.6475 24.6388 33.8392 23.7862 34.1824 22.9906C34.4024 24.1703 34.9294 25.2711 35.7104 26.1822C36.5235 27.0373 37.2898 27.3317 38.2758 28.1448C38.4934 28.3503 38.6877 28.5791 38.8553 28.8271C39.5117 29.7718 39.9272 30.8626 40.0655 32.0046C40.402 35.1355 39.2758 37.3317 36.5048 39.2009C35.6924 39.7428 34.8085 40.169 33.8786 40.4673C33.8373 40.4912 33.7916 40.5065 33.7441 40.5121C33.6967 40.5177 33.6487 40.5136 33.6029 40.5C36.7945 38.2944 37.3412 33.6729 34.687 31.5467C34.7892 31.8471 34.8165 32.1679 34.7665 32.4813C34.6371 32.8814 34.3586 33.2163 33.9887 33.4164C33.6189 33.6165 33.1862 33.6665 32.7805 33.556C32.0752 33.4167 31.4434 33.0286 31.0001 32.4626C30.4971 31.8491 30.1736 31.1084 30.0655 30.3224C29.9845 29.231 30.144 28.1351 30.5328 27.1121C29.9652 27.5068 29.5109 28.0433 29.2151 28.6682C28.9625 29.2227 28.794 29.8117 28.7151 30.4159C28.5796 31.757 28.8506 32.0327 28.9954 32.8925C29.131 33.6542 29.5048 34.2944 29.4627 35.0467C29.4528 35.1907 29.4141 35.3313 29.3488 35.4601C29.2836 35.5889 29.1932 35.7033 29.083 35.7966C28.9727 35.8898 28.8449 35.96 28.7071 36.0029C28.5692 36.0459 28.4242 36.0608 28.2805 36.0467C27.5842 36.0467 26.8786 34.8598 27.0655 34.2944C27.2518 33.5675 27.3661 32.824 27.4067 32.0747C27.4932 30.8079 27.1472 29.5492 26.4253 28.5046C26.3179 29.4906 26.0562 31.3084 24.7291 32.7102C23.0375 34.785 24.5562 38.1682 27.0655 39.9486C27.3272 40.1308 27.6029 40.299 27.9253 40.5093C27.7045 40.476 27.4892 40.4131 27.2852 40.3224C26.4981 40.0317 25.7446 39.6572 25.0375 39.2056C24.9721 39.1635 24.9207 39.0934 24.8179 39.0934C24.8179 39.0514 24.7898 39.0327 24.7525 39.014C23.9279 38.4375 23.1953 37.7396 22.5796 36.9439C21.7885 35.9348 21.2649 34.7423 21.0574 33.477C20.8499 32.2117 20.9652 30.9145 21.3926 29.7056C21.8439 28.1411 22.6626 26.7072 23.7805 25.5233C24.6824 24.4953 25.0188 23.8925 25.916 22.8504C27.1169 21.4486 27.7852 19.7336 27.7104 19.2289C28.0042 19.5499 28.2068 19.9436 28.2971 20.3692C28.3875 20.7948 28.3624 21.2369 28.2244 21.6495C28.1586 21.8309 28.1055 22.0167 28.0655 22.2056C27.9861 22.6729 28.2898 22.9486 28.8646 22.9205C29.2091 22.888 29.5386 22.7644 29.8195 22.5624C30.1004 22.3604 30.3224 22.0872 30.4627 21.771C30.8217 21.1678 31.0076 20.4775 31.0001 19.7757C31.0234 18.4559 30.7703 17.146 30.2571 15.9299L30.2151 15.8084C30.2151 15.8084 30.2151 15.8084 30.2151 15.771C30.6476 16.0739 31.0428 16.4268 31.3926 16.8224C31.3926 16.8504 31.4347 16.8831 31.4861 16.8785C31.4861 16.9159 31.4861 16.9439 31.5468 16.9345C31.5141 16.9906 31.5468 17.0187 31.6123 17.0374L31.5936 17.028Z" fill="#BD1622"/>
<path d="M9.26634 37.2056H3.30372C2.61214 37.2056 2.50933 37.1262 2.54204 36.5888C2.54204 36.3364 2.57943 36.0794 2.5841 35.8271C2.5841 35.7196 2.6355 35.6776 2.77101 35.6869H8.10279C8.63083 35.6869 8.57008 35.6869 8.57008 35.3224V25.4205C8.57255 25.317 8.56314 25.2135 8.54204 25.1121C8.50466 24.9813 8.39251 24.9486 8.24298 25.0187C8.18382 25.0458 8.12747 25.0787 8.07475 25.1168C7.34111 25.6495 6.60279 26.1869 5.87382 26.7243C5.67091 26.9024 5.41015 27.0006 5.14017 27.0006C4.87019 27.0006 4.60943 26.9024 4.40653 26.7243C3.72328 26.2814 3.17902 25.6545 2.83643 24.9159C2.51952 24.218 2.45509 23.4317 2.65419 22.6916C2.83643 22.042 3.58877 21.3925 4.19625 20.9392C5.98441 19.6339 7.77102 18.3271 9.55606 17.0187L20.7243 8.87849C21.5888 8.22428 22.4299 7.5841 23.3224 6.9626C24.8505 5.88783 27.528 5.59811 29.4205 6.9626L45.8785 19.1589C45.972 19.229 46.0234 19.3084 45.9252 19.3551C45.8271 19.4019 45.5234 19.514 45.3551 19.5794C45.0855 19.6736 44.8109 19.7531 44.5327 19.8177C44.4422 19.837 44.3486 19.8365 44.2583 19.8163C44.168 19.7962 44.0831 19.7568 44.0093 19.7009C43.7009 19.4719 43.3832 19.2336 43.0748 19.0233C42.243 18.4112 41.4206 17.7897 40.5888 17.1542L36.8505 14.4019L34.1308 12.3925L30.3925 9.62148C29.7383 9.15419 29.0748 8.66354 28.4205 8.1869C27.8943 7.83645 27.2878 7.6252 26.6577 7.5729C26.0276 7.52059 25.3946 7.62895 24.8177 7.88783C24.4137 8.09877 24.0276 8.34258 23.6635 8.61681C22.7617 9.26167 21.8738 9.92522 20.9813 10.5841L17.1495 13.3878L14.1262 15.5981L10.2944 18.4019L7.32242 20.5607L4.98597 22.2617C4.69567 22.4541 4.45796 22.7159 4.29438 23.0234C4.17233 23.3003 4.16394 23.6141 4.27101 23.8972C4.41784 24.3614 4.65795 24.7907 4.97662 25.1589C5.0841 25.2804 5.15419 25.2944 5.30372 25.1869C6.43924 24.3458 7.5841 23.5187 8.71961 22.6776C8.82624 22.5883 8.95365 22.5274 9.09004 22.5005C9.22644 22.4735 9.36743 22.4814 9.49999 22.5234C9.62488 22.5468 9.73711 22.6146 9.81608 22.7142C9.89505 22.8137 9.93546 22.9384 9.92989 23.0654C9.92989 25.6262 9.94235 28.1853 9.96728 30.743C9.96728 31.8411 9.96728 34.3037 9.96728 35.4159C9.96728 35.6635 9.96728 35.6682 10.2944 35.6682C13.7757 35.6682 9.89251 35.6682 13.3738 35.6682C13.8037 35.6682 14.243 35.6682 14.6729 35.6682C14.8318 35.6682 14.8785 35.7009 14.8785 35.8224C14.8785 36.1215 14.9159 36.4159 14.9159 36.7149C14.9159 37.0841 14.7804 37.1822 14.3037 37.1822H9.26634V37.2056Z" fill="#BD1622"/>
<path d="M20.0935 39.8506C19.9624 39.8727 19.8278 39.8592 19.7037 39.8115C19.5795 39.7638 19.4705 39.6837 19.3879 39.5795C19.2629 39.4298 19.1863 39.2457 19.1683 39.0515C19.1566 38.903 19.1806 38.7538 19.2384 38.6164C19.2961 38.479 19.3858 38.3574 19.5 38.2618L40.6776 20.4534C40.7711 20.3722 40.8798 20.3103 40.9974 20.2715C41.115 20.2327 41.2392 20.2176 41.3627 20.2272C41.4862 20.2367 41.6065 20.2707 41.7167 20.3272C41.8269 20.3837 41.9248 20.4615 42.0047 20.5562C42.1017 20.6917 42.1465 20.8576 42.1309 21.0235C42.1431 21.1716 42.1198 21.3206 42.0629 21.4579C42.006 21.5953 41.9172 21.7171 41.8038 21.8132L20.6402 39.6309C20.4864 39.7612 20.2947 39.8382 20.0935 39.8506Z" fill="#BD1622"/>
</svg>
