<svg width="48" height="48" viewBox="0 0 48 48" fill="none" xmlns="http://www.w3.org/2000/svg">
<path d="M42.6028 0.0231934H5.38318C2.41013 0.0231934 0 2.43332 0 5.40637V42.626C0 45.599 2.41013 48.0092 5.38318 48.0092H42.6028C45.5758 48.0092 47.986 45.599 47.986 42.626V5.40637C47.986 2.43332 45.5758 0.0231934 42.6028 0.0231934Z" fill="#ECECEC"/>
<path fill-rule="evenodd" clip-rule="evenodd" d="M42.9907 24.1727C42.9898 27.9314 41.8742 31.6055 39.7852 34.7303C37.6962 37.8551 34.7275 40.2903 31.2545 41.7278C27.7815 43.1654 23.9602 43.5408 20.2738 42.8066C16.5874 42.0724 13.2016 40.2615 10.5444 37.603C7.88717 34.9445 6.07798 31.5578 5.34559 27.871C4.6132 24.1843 4.99049 20.3632 6.42976 16.8909C7.86904 13.4186 10.3056 10.4511 13.4315 8.3636C16.5573 6.27611 20.2319 5.16241 23.9907 5.16333C26.4864 5.16394 28.9576 5.65612 31.2631 6.61176C33.5686 7.5674 35.6633 8.96779 37.4276 10.733C39.192 12.4982 40.5913 14.5936 41.5458 16.8995C42.5003 19.2055 42.9913 21.6769 42.9907 24.1727Z" fill="white"/>
<path d="M21.1401 32.1026C20.7105 32.6254 20.1344 33.0078 19.4859 33.2007C19.2482 33.2665 19.0034 33.3026 18.7569 33.3082C16.9859 33.3082 15.2102 33.3082 13.4391 33.3082C13.0045 33.3082 12.8503 33.1213 12.9017 32.682C12.9952 31.8269 13.5606 31.4017 14.3036 31.126C14.3629 31.0976 14.4237 31.0726 14.4859 31.0512L14.1307 29.3222C14.0933 29.3689 14.0279 29.4437 13.9765 29.5185C13.2335 30.6587 12.4812 31.7989 11.7475 32.9437C11.6849 33.0598 11.5894 33.155 11.4731 33.2173C11.3568 33.2796 11.2247 33.3063 11.0933 33.2942C10.7008 33.2942 10.3083 33.2942 9.91576 33.2942C9.70548 33.2942 9.50455 33.2942 9.3924 33.0652C9.3515 32.9713 9.33856 32.8675 9.35514 32.7664C9.37171 32.6653 9.4171 32.5711 9.48585 32.4951C10.2273 31.302 10.9672 30.1073 11.7055 28.911C11.7732 28.8047 11.8104 28.6819 11.813 28.5559C11.813 26.3736 11.813 24.1961 11.813 22.0138C11.813 21.9484 11.813 21.8783 11.813 21.8175C11.4891 21.8037 11.1662 21.7725 10.8457 21.7241C10.3507 21.6245 9.88513 21.4126 9.48491 21.1048C9.0847 20.7969 8.76049 20.4013 8.53726 19.9484C8.37838 19.6493 8.47651 19.4157 8.80829 19.2755C9.32698 19.0605 9.85034 18.8596 10.3644 18.6353C10.4804 18.5819 10.5721 18.4868 10.6214 18.3689C10.6994 18.1505 10.8231 17.9513 10.9843 17.7845C11.1455 17.6177 11.3403 17.4872 11.5559 17.4017C11.6159 17.384 11.6682 17.3468 11.7046 17.296C11.741 17.2452 11.7594 17.1837 11.7569 17.1213C11.7569 16.8316 11.8036 16.5465 11.827 16.2568C11.8276 16.1621 11.857 16.0699 11.9112 15.9923C11.9655 15.9147 12.042 15.8554 12.1307 15.8222C12.2205 15.7919 12.3178 15.7914 12.4079 15.8209C12.498 15.8503 12.5762 15.9082 12.6307 15.9858L13.0466 16.4531C13.1214 16.1914 13.1868 15.9858 13.2522 15.7521C13.2802 15.6587 13.3036 15.5699 13.3317 15.4811C13.3542 15.3859 13.4082 15.301 13.485 15.2403C13.5617 15.1796 13.6567 15.1466 13.7545 15.1466C13.8524 15.1466 13.9474 15.1796 14.0241 15.2403C14.1009 15.301 14.1549 15.3859 14.1774 15.4811C14.3737 16.0138 14.5653 16.5512 14.7616 17.0886L16.6307 22.2708C16.6477 22.3434 16.684 22.4099 16.7359 22.4634C16.7877 22.5169 16.8531 22.5553 16.9251 22.5746C18.5957 23.0552 20.0424 24.1112 21.0092 25.5559C21.0373 25.5932 21.07 25.626 21.1541 25.7194V25.3503C21.1541 23.4811 21.1541 21.5979 21.1541 19.7007C21.1351 19.4104 21.1873 19.1199 21.3062 18.8544C21.4251 18.5889 21.6071 18.3565 21.8363 18.1774C22.1402 17.9398 22.516 17.8129 22.9017 17.8175H32.2475C32.5627 17.8233 32.8638 17.9495 33.0888 18.1702C33.3139 18.3909 33.4459 18.6894 33.4578 19.0045C33.4825 19.3231 33.3805 19.6387 33.1741 19.8827C32.9677 20.1268 32.6734 20.2796 32.355 20.3082C31.7429 20.3503 31.126 20.3082 30.5139 20.3082H29.4391C29.5045 20.383 29.5326 20.4297 29.57 20.4671C30.1541 20.9811 30.7288 21.4951 31.3223 21.9951C31.3727 22.0345 31.4306 22.0631 31.4925 22.0792C31.5544 22.0952 31.6189 22.0984 31.6821 22.0886C32.313 21.9811 32.9345 21.8456 33.5513 21.7194C33.7367 21.6575 33.9329 21.635 34.1275 21.6534C34.3221 21.6718 34.5107 21.7307 34.6812 21.8262C34.8516 21.9218 35.0002 22.052 35.1174 22.2084C35.2346 22.3648 35.3178 22.544 35.3617 22.7345C35.4055 22.925 35.4091 23.1225 35.3721 23.3144C35.3351 23.5063 35.2584 23.6884 35.1468 23.8489C35.0353 24.0094 34.8915 24.1448 34.7245 24.2464C34.5576 24.3481 34.3712 24.4137 34.1774 24.439C33.8316 24.5185 33.4765 24.5839 33.126 24.654C32.5606 24.7661 31.9905 24.8643 31.4251 24.9904C31.1843 25.0496 30.9324 25.0468 30.693 24.9822C30.4535 24.9177 30.2344 24.7935 30.0559 24.6213L27.8831 22.7147C27.8223 22.6587 27.7616 22.6119 27.6681 22.5372V28.7054C27.7475 28.6353 27.7989 28.5979 27.841 28.5512C28.6821 27.7163 29.5201 26.8783 30.355 26.0372C30.6681 25.7241 30.8831 25.7194 31.2008 26.0372C32.6183 27.4546 34.0326 28.8721 35.4438 30.2895C35.5029 30.3532 35.5756 30.4027 35.6565 30.4343C35.7375 30.4659 35.8245 30.4787 35.9111 30.4718C36.6634 30.4718 37.4111 30.4718 38.1634 30.4718C38.3475 30.4567 38.5328 30.4781 38.7086 30.5346C38.8844 30.5912 39.0474 30.6819 39.1882 30.8014C39.329 30.9209 39.4449 31.067 39.5293 31.2314C39.6136 31.3957 39.6647 31.575 39.6798 31.7591C39.6948 31.9432 39.6734 32.1285 39.6169 32.3043C39.5603 32.4802 39.4697 32.6431 39.3501 32.7839C39.2306 32.9247 39.0845 33.0406 38.9202 33.125C38.7558 33.2093 38.5765 33.2605 38.3924 33.2755C38.2475 33.2755 38.1027 33.2755 37.9578 33.2755C32.9718 33.2755 27.9905 33.2755 23.0045 33.2755C22.084 33.2989 21.4485 33.0138 21.1401 32.1026ZM30.7756 29.9624L30.3083 30.4718H31.1821L30.7756 29.9624Z" fill="#BD1622"/>
<path d="M24.0326 17.3409C23.3939 17.3335 22.7717 17.1371 22.2445 16.7765C21.7173 16.4159 21.3087 15.9072 21.0702 15.3146C20.8318 14.7221 20.7741 14.0721 20.9046 13.4469C21.0351 12.8216 21.3478 12.249 21.8034 11.8012C22.2589 11.3535 22.8369 11.0507 23.4643 10.931C24.0918 10.8114 24.7406 10.8802 25.329 11.1289C25.9173 11.3776 26.4188 11.7949 26.7703 12.3283C27.1217 12.8617 27.3073 13.4872 27.3037 14.1259C27.289 14.9837 26.9378 15.8013 26.326 16.4027C25.7141 17.0041 24.8905 17.341 24.0326 17.3409Z" fill="#BD1622"/>
</svg>
