<svg width="33" height="33" viewBox="0 0 33 33" fill="none" xmlns="http://www.w3.org/2000/svg">
<path d="M24.5702 32.0572C23.7892 31.8887 22.998 31.7585 22.2272 31.5449C20.6433 31.1036 19.1695 30.3949 17.7504 29.5771C13.7274 27.2569 10.2893 24.2365 7.2379 20.7609C5.25881 18.5061 3.52964 16.0775 2.19566 13.3839C1.38028 11.7263 0.731254 10.0064 0.510226 8.15712C0.371986 6.99623 0.409475 5.84235 0.978836 4.78047C1.16177 4.44189 1.3904 4.12998 1.65832 3.85348C2.58773 2.89763 3.55072 1.97375 4.48326 1.02102C5.7774 -0.304374 7.78696 -0.164818 9.00847 1.02102C10.4651 2.43686 11.8982 3.87842 13.3244 5.32467C14.5818 6.59939 14.5912 8.50874 13.3431 9.67119C13.0648 9.92178 12.7426 10.119 12.3926 10.2528C11.5202 10.5966 10.8306 11.119 10.4533 11.9961C10.2056 12.5616 10.1622 13.1954 10.3307 13.7893C10.7954 15.5255 11.7834 16.9546 12.9706 18.2613C14.2061 19.6202 15.6049 20.7796 17.2662 21.5881C17.9995 21.9444 18.7501 22.2601 19.5998 22.1502C20.7471 22.0005 21.6211 21.4485 22.0749 20.357C22.3553 19.6818 22.6864 19.0628 23.3315 18.6597C24.5398 17.905 26.0292 18.0415 27.096 19.0784C28.5971 20.5389 30.0793 22.0184 31.5424 23.5169C32.7381 24.7472 32.6936 26.7088 31.4814 27.9406C30.5231 28.9128 29.5492 29.8687 28.5847 30.8347C27.9013 31.52 27.0609 31.8661 26.1159 31.9948C26.0367 32.01 25.9584 32.0298 25.8816 32.054L24.5702 32.0572Z" fill="white"/>
</svg>
