<svg width="48" height="48" viewBox="0 0 48 48" fill="none" xmlns="http://www.w3.org/2000/svg">
<path d="M42.6152 0H5.38475C2.41083 0 0 2.41083 0 5.38475V42.6152C0 45.5892 2.41083 48 5.38475 48H42.6152C45.5892 48 48 45.5892 48 42.6152V5.38475C48 2.41083 45.5892 0 42.6152 0Z" fill="#ECECEC"/>
<path fill-rule="evenodd" clip-rule="evenodd" d="M43.0031 24.1566C43.0022 27.9164 41.8864 31.5916 39.7967 34.7173C37.7071 37.843 34.7375 40.2789 31.2635 41.7169C27.7895 43.1548 23.967 43.5304 20.2796 42.7959C16.5922 42.0615 13.2053 40.2501 10.5473 37.5909C7.88936 34.9316 6.07965 31.5438 5.34704 27.856C4.61443 24.1682 4.99184 20.346 6.43153 16.8727C7.87122 13.3994 10.3085 10.431 13.4353 8.34289C16.562 6.25478 20.2377 5.14076 23.9976 5.14168C26.494 5.1423 28.9659 5.63462 31.2721 6.59054C33.5783 7.54646 35.6736 8.94726 37.4385 10.713C39.2033 12.4787 40.6031 14.5747 41.5578 16.8813C42.5126 19.188 43.0037 21.6601 43.0031 24.1566Z" fill="white"/>
<path fill-rule="evenodd" clip-rule="evenodd" d="M22.9039 20.8705L25.9235 18.697C25.9235 18.697 23.0441 19.2673 21.4128 17.0096L18.884 13.5179L18.8139 13.5694C18.6544 13.4493 18.4633 13.3783 18.2641 13.3651C18.0649 13.3518 17.8661 13.3968 17.6921 13.4946C15.5793 14.5837 14.6772 14.3079 12.7841 12.7233C11.8963 11.9782 11.1667 11.0627 10.6386 10.0309C9.80659 8.43701 8.9699 6.36631 7.89015 5.55766C7.13657 5.05324 6.254 4.77581 5.34735 4.75837C5.09916 5.6303 5.10728 6.55525 5.37072 7.42269C5.83815 8.68942 7.42272 9.88603 8.85304 11.3537C9.67343 12.0986 10.2829 13.0466 10.6199 14.1022C11.7604 17.1078 10.7368 18.3885 9.77855 19.314C9.66731 19.4342 9.59594 19.5859 9.57418 19.7482C9.55243 19.9105 9.58136 20.0756 9.65702 20.2208L9.61495 20.2535L9.76453 20.4592L10.0356 20.8285L12.1391 23.7265C12.2097 23.8365 12.2861 23.9426 12.3681 24.0444L12.6345 24.4043H12.6626C13.4525 25.2457 15.0605 26.4142 17.1545 25.0447L18.9167 23.7686C18.9167 23.7686 16.6357 24.2126 14.9857 22.7169L15.3549 22.4504C16.1449 23.2077 17.8323 24.1893 20.4966 22.6234L21.3287 22.0251C21.3287 22.0251 19.0429 22.4925 17.3929 20.964L17.7622 20.6976C18.5428 21.4548 20.2302 22.4364 22.9039 20.8705ZM7.36196 7.50683C7.49162 7.4036 7.6569 7.35597 7.82161 7.37437C7.98632 7.39277 8.13703 7.4757 8.24072 7.60499C8.3242 7.74374 8.35286 7.90867 8.32108 8.06745C8.2893 8.22623 8.19938 8.36743 8.06893 8.46336C7.93847 8.5593 7.7769 8.60307 7.61586 8.58609C7.45482 8.56911 7.30593 8.4926 7.19836 8.37157C7.10644 8.23488 7.07207 8.06748 7.10269 7.90563C7.13331 7.74377 7.22646 7.6005 7.36196 7.50683ZM12.6766 22.6935L11.0546 20.4499L18.5334 15.0604L20.1367 17.2947L12.6766 22.6935Z" fill="#BD1622"/>
<path d="M17.6454 44.0082H12.3728C11.854 44.0082 11.7792 43.9428 11.8025 43.5081C11.8025 43.3024 11.8306 43.0967 11.8353 42.8911C11.8353 42.8022 11.8727 42.7695 11.9755 42.7789H16.776C17.1686 42.7789 17.1219 42.7789 17.1219 42.4844V35.5478C17.1256 35.463 17.1177 35.3781 17.0985 35.2954C17.0704 35.1879 16.991 35.1645 16.8741 35.2206L16.7526 35.3001L15.1026 36.6042C14.9553 36.7467 14.7583 36.8263 14.5534 36.8263C14.3484 36.8263 14.1514 36.7467 14.0041 36.6042C13.4817 36.233 13.0736 35.723 12.8262 35.1318C12.59 34.5603 12.5409 33.9287 12.686 33.3275C12.9305 32.7589 13.3328 32.2723 13.8452 31.9252L17.8651 28.7467L26.232 22.1186C26.8817 21.6045 27.5221 21.0856 28.1812 20.5808C28.8428 20.0937 29.6429 19.831 30.4645 19.831C31.2862 19.831 32.0863 20.0937 32.7479 20.5808L45.0833 30.4528C45.1487 30.5089 45.1861 30.5744 45.1113 30.6118C45.0366 30.6492 44.8122 30.7427 44.686 30.7941C44.4844 30.8705 44.2784 30.9345 44.069 30.9857C44.0007 31.0005 43.93 30.9997 43.8621 30.9835C43.7941 30.9674 43.7306 30.9362 43.6763 30.8922C43.4473 30.7099 43.2089 30.5276 42.9799 30.3407L41.1102 28.8449L38.3056 26.6106L36.2676 24.9793L33.4631 22.7263C32.9957 22.3383 32.4768 21.9504 31.986 21.5624C31.602 21.2782 31.147 21.1055 30.6711 21.0634C30.1952 21.0214 29.7169 21.1115 29.289 21.324C28.9827 21.4925 28.6932 21.6897 28.4242 21.913C27.7605 22.4365 27.1108 22.974 26.4283 23.5069C25.4748 24.2704 24.5181 25.0291 23.5583 25.7833L21.2913 27.5782L18.4213 29.8499L16.1917 31.6167L14.4529 33.019C14.2346 33.18 14.057 33.3897 13.934 33.6313C13.8497 33.8623 13.8497 34.1156 13.934 34.3465C14.0424 34.7195 14.2235 35.0674 14.4669 35.3702C14.5463 35.4683 14.5978 35.4824 14.7099 35.3702L17.2714 33.3369C17.3445 33.2648 17.4351 33.2131 17.5343 33.1869C17.6335 33.1607 17.7379 33.1608 17.837 33.1873C17.9332 33.2137 18.0175 33.2721 18.0761 33.3528C18.1348 33.4335 18.1642 33.5317 18.1595 33.6313L18.1876 39.8668V42.5452C18.1876 42.7462 18.1876 42.7508 18.4307 42.7508H22.0719C22.3991 42.7508 22.7263 42.7508 23.0488 42.7508C23.1657 42.7508 23.2031 42.7789 23.2031 42.8817C23.2031 43.1201 23.2311 43.3491 23.2311 43.6062C23.2311 43.8633 23.1283 43.9895 22.7637 43.9895H17.622L17.6454 44.0082Z" fill="#BD1622" stroke="#BD1622" stroke-width="1.12" stroke-miterlimit="10"/>
</svg>
