<svg width="70" height="70" viewBox="0 0 70 70" fill="none" xmlns="http://www.w3.org/2000/svg">
<path d="M62.1472 0H7.85276C3.5158 0 0 3.5158 0 7.85276V62.1472C0 66.4842 3.5158 70 7.85276 70H62.1472C66.4842 70 70 66.4842 70 62.1472V7.85276C70 3.5158 66.4842 0 62.1472 0Z" fill="#ECECEC"/>
<path fill-rule="evenodd" clip-rule="evenodd" d="M62.713 35.2284C62.7117 40.7115 61.0844 46.0711 58.037 50.6294C54.9896 55.1877 50.659 58.74 45.5927 60.8371C40.5264 62.9341 34.9521 63.4818 29.5746 62.4108C24.197 61.3397 19.2579 58.6981 15.3817 54.82C11.5055 50.9419 8.86629 46.0014 7.7979 40.6234C6.72952 35.2453 7.2799 29.6713 9.37945 24.606C11.479 19.5408 15.0334 15.2119 19.5932 12.1667C24.1531 9.12157 29.5135 7.49694 34.9966 7.49829C38.6373 7.49919 42.2421 8.21716 45.6053 9.61121C48.9685 11.0053 52.0242 13.0481 54.5979 15.6231C57.1716 18.198 59.2129 21.2547 60.6053 24.6186C61.9977 27.9825 62.7139 31.5877 62.713 35.2284Z" fill="white"/>
<path fill-rule="evenodd" clip-rule="evenodd" d="M33.4015 30.4363L37.805 27.2665C37.805 27.2665 33.606 28.0982 31.227 24.8057L27.5392 19.7137L27.4369 19.7887C27.2043 19.6137 26.9257 19.5101 26.6352 19.4908C26.3447 19.4714 26.0548 19.537 25.8009 19.6796C22.7198 21.2679 21.4042 20.8657 18.6435 18.5549C17.3487 17.4682 16.2848 16.1332 15.5146 14.6285C14.3013 12.304 13.0811 9.28425 11.5065 8.10498C10.4075 7.36935 9.12042 6.96477 7.79822 6.93933C7.43629 8.2109 7.44812 9.55979 7.8323 10.8248C8.51397 12.6721 10.8248 14.4172 12.9107 16.5576C14.1071 17.6438 14.9959 19.0264 15.4874 20.5658C17.1506 24.9489 15.6578 26.8166 14.2604 28.1663C14.0982 28.3416 13.9941 28.5627 13.9624 28.7995C13.9306 29.0362 13.9728 29.2769 14.0832 29.4887L14.0218 29.5365L14.2399 29.8364L14.6353 30.3749L17.7028 34.6012C17.8057 34.7616 17.9172 34.9163 18.0368 35.0648L18.4254 35.5896H18.4663C19.6183 36.8166 21.9632 38.5208 25.017 36.5235L27.5869 34.6626C27.5869 34.6626 24.2604 35.3102 21.8541 33.1288L22.3926 32.7403C23.5446 33.8446 26.0054 35.2761 29.8909 32.9925L31.1043 32.12C31.1043 32.12 27.771 32.8016 25.3647 30.5726L25.9032 30.184C27.0416 31.2883 29.5024 32.7198 33.4015 30.4363ZM10.7362 10.9475C10.9253 10.797 11.1663 10.7275 11.4065 10.7543C11.6467 10.7812 11.8665 10.9021 12.0177 11.0907C12.1395 11.293 12.1813 11.5335 12.1349 11.7651C12.0886 11.9966 11.9574 12.2025 11.7672 12.3425C11.5769 12.4824 11.3413 12.5462 11.1065 12.5214C10.8716 12.4967 10.6545 12.3851 10.4976 12.2086C10.3636 12.0092 10.3134 11.7651 10.3581 11.5291C10.4027 11.2931 10.5386 11.0841 10.7362 10.9475ZM18.4867 33.0947L16.1213 29.8228L27.0279 21.9632L29.366 25.2215L18.4867 33.0947Z" fill="#BD1622"/>
<path d="M25.7327 64.1785H18.0436C17.2869 64.1785 17.1779 64.0831 17.2119 63.4491C17.2119 63.1492 17.2528 62.8493 17.2597 62.5493C17.2597 62.4198 17.3142 62.3721 17.4642 62.3857H24.4648C25.0374 62.3857 24.9693 62.3857 24.9693 61.9563V51.8404C24.9747 51.7167 24.9632 51.5929 24.9352 51.4723C24.8943 51.3155 24.7784 51.2814 24.608 51.3632L24.4308 51.4791L22.0245 53.381C21.8096 53.5888 21.5224 53.705 21.2235 53.705C20.9246 53.705 20.6374 53.5888 20.4226 53.381C19.6607 52.8397 19.0656 52.0959 18.7048 51.2337C18.3603 50.4003 18.2887 49.4791 18.5003 48.6025C18.8569 47.7733 19.4435 47.0637 20.1908 46.5575L26.0531 41.9222L38.2549 32.2562C39.2024 31.5064 40.1363 30.7497 41.0974 30.0135C42.0624 29.3032 43.2292 28.92 44.4273 28.92C45.6255 28.92 46.7923 29.3032 47.7573 30.0135L65.7464 44.4103C65.8418 44.4921 65.8963 44.5875 65.7873 44.642C65.6782 44.6966 65.351 44.8329 65.1669 44.9079C64.873 45.0194 64.5725 45.1127 64.2672 45.1874C64.1676 45.2089 64.0645 45.2078 63.9654 45.1842C63.8663 45.1606 63.7738 45.1151 63.6946 45.051C63.3605 44.7852 63.0129 44.5193 62.6789 44.2467L59.9522 42.0653L55.8622 38.807L52.8902 36.428L48.8002 33.1424C48.1185 32.5766 47.3619 32.0108 46.6462 31.445C46.0861 31.0305 45.4225 30.7787 44.7285 30.7174C44.0345 30.656 43.337 30.7875 42.713 31.0974C42.2664 31.3431 41.8441 31.6307 41.4519 31.9563C40.4839 32.7197 39.5364 33.5037 38.5412 34.2808C37.1506 35.3941 35.7555 36.5007 34.3558 37.6005L31.0497 40.218L26.8643 43.5309L23.6128 46.1076L21.077 48.1526C20.7587 48.3874 20.4997 48.6931 20.3203 49.0456C20.1973 49.3823 20.1973 49.7518 20.3203 50.0885C20.4784 50.6325 20.7425 51.1399 21.0974 51.5814C21.2133 51.7245 21.2883 51.745 21.4519 51.5814L25.1874 48.6161C25.294 48.5111 25.4261 48.4357 25.5708 48.3974C25.7155 48.3592 25.8676 48.3594 26.0122 48.398C26.1525 48.4365 26.2755 48.5216 26.3609 48.6393C26.4464 48.757 26.4893 48.9003 26.4826 49.0456L26.5235 58.139V62.0449C26.5235 62.338 26.5235 62.3448 26.8779 62.3448H32.1881C32.6652 62.3448 33.1424 62.3448 33.6128 62.3448C33.7832 62.3448 33.8377 62.3857 33.8377 62.5357C33.8377 62.8833 33.8786 63.2174 33.8786 63.5923C33.8786 63.9672 33.7286 64.1512 33.1969 64.1512H25.6986L25.7327 64.1785Z" fill="#BD1622" stroke="#BD1622" stroke-width="1.12" stroke-miterlimit="10"/>
</svg>
