<svg width="70" height="70" viewBox="0 0 70 70" fill="none" xmlns="http://www.w3.org/2000/svg">
<path d="M62.1472 0H7.85276C3.5158 0 0 3.5158 0 7.85276V62.1472C0 66.4842 3.5158 70 7.85276 70H62.1472C66.4842 70 70 66.4842 70 62.1472V7.85276C70 3.5158 66.4842 0 62.1472 0Z" fill="#ECECEC"/>
<path fill-rule="evenodd" clip-rule="evenodd" d="M62.713 35.2284C62.7117 40.7115 61.0844 46.0711 58.037 50.6294C54.9897 55.1877 50.659 58.74 45.5927 60.8371C40.5265 62.9341 34.9521 63.4818 29.5746 62.4108C24.1971 61.3397 19.2579 58.6981 15.3817 54.82C11.5055 50.9419 8.8663 46.0014 7.79792 40.6234C6.72953 35.2453 7.27992 29.6713 9.37947 24.606C11.479 19.5408 15.0334 15.2119 19.5933 12.1667C24.1531 9.12157 29.5135 7.49694 34.9966 7.49829C38.6373 7.49919 42.2421 8.21716 45.6053 9.61121C48.9685 11.0053 52.0242 13.0481 54.5979 15.6231C57.1716 18.198 59.2129 21.2547 60.6053 24.6186C61.9977 27.9825 62.7139 31.5877 62.713 35.2284Z" fill="white"/>
<path fill-rule="evenodd" clip-rule="evenodd" d="M24.7921 28.6299L19.7205 32.2972C19.7205 32.2972 24.5399 31.3088 27.3074 35.1057L31.5542 40.968L31.6769 40.8862C31.9444 41.0873 32.2645 41.2065 32.5984 41.2295C32.9323 41.2525 33.2657 41.1782 33.5583 41.0157C37.1097 39.182 38.6299 39.6523 41.8132 42.3108C43.3072 43.5636 44.5356 45.1025 45.426 46.8371C46.7894 49.516 48.2345 52.972 50.0477 54.3354C51.3134 55.1877 52.7963 55.6607 54.3218 55.6987C54.7396 54.2331 54.7254 52.6779 54.2808 51.2202C53.5106 49.0866 50.8725 47.0688 48.4254 44.6012C45.9782 42.1336 45.6987 40.6885 45.4601 39.9795C43.5378 34.9284 45.2624 32.7744 46.8712 31.2134C47.0538 31.0097 47.171 30.7559 47.2075 30.4848C47.2439 30.2137 47.198 29.9379 47.0757 29.6932L47.1506 29.6387L46.9189 29.3115L46.4554 28.6299L42.9448 23.7764C42.8971 23.7014 42.7676 23.5037 42.5631 23.2447L42.12 22.638H42.0654C40.743 21.2202 38.0368 19.2297 34.5126 21.561L31.5474 23.7082C31.5474 23.7082 35.3851 22.9584 38.1595 25.4737L37.5392 25.9236C36.2168 24.6489 33.3742 22.9925 28.8821 25.6305L27.5187 26.6394C27.5187 26.6394 31.302 25.9032 34.0832 28.4526L33.456 28.9093C32.1336 27.621 29.3115 25.9577 24.7921 28.6299ZM50.9339 51.1247C50.7682 51.2265 50.5766 51.2779 50.3822 51.2726C50.1879 51.2673 49.9993 51.2056 49.8394 51.0951C49.6795 50.9845 49.5553 50.8298 49.4818 50.6498C49.4083 50.4699 49.3887 50.2724 49.4254 50.0815C49.4622 49.8906 49.5536 49.7145 49.6887 49.5747C49.8238 49.4349 49.9966 49.3374 50.1861 49.2941C50.3756 49.2507 50.5736 49.2635 50.756 49.3307C50.9384 49.398 51.0973 49.5168 51.2134 49.6728C51.3515 49.8992 51.3995 50.1693 51.3477 50.4295C51.296 50.6896 51.1482 50.9208 50.9339 51.077V51.1247ZM42.0041 25.5351L44.7307 29.3115L32.1813 38.3845L29.4547 34.608L42.0041 25.5351Z" fill="#BD1622"/>
<path d="M16.7416 55.3647H7.10974C6.13496 55.3579 6.02589 55.2147 6.06679 54.4512C6.06679 54.0695 6.11451 53.6946 6.12133 53.3197C6.12133 53.1561 6.19631 53.0947 6.38036 53.1084C6.56441 53.122 6.57123 53.1084 6.66666 53.1084H15.1534C15.8691 53.1084 15.7805 53.1493 15.7805 52.5699C15.7805 48.3526 15.7805 44.1309 15.7805 39.9046C15.7975 39.7528 15.7975 39.5996 15.7805 39.4478C15.726 39.2502 15.576 39.2093 15.3715 39.3115C15.2881 39.3485 15.2102 39.3967 15.1397 39.4547L12.1268 41.8337C11.8601 42.0976 11.5 42.2456 11.1247 42.2456C10.7495 42.2456 10.3894 42.0976 10.1227 41.8337C9.16641 41.1588 8.41982 40.2279 7.96864 39.1479C7.53391 38.1034 7.44551 36.9471 7.71642 35.8487C7.96864 34.8875 8.9775 33.9195 9.82958 33.2515C12.2836 31.3156 14.7307 29.3774 17.1711 27.4369L32.4335 15.3306C33.6196 14.3899 34.7853 13.4356 35.9918 12.5153C37.2021 11.6373 38.6604 11.1674 40.1555 11.1735C41.6507 11.1796 43.1051 11.6615 44.3081 12.5494L66.878 30.593C67.0007 30.6885 67.0688 30.8112 66.9325 30.8793C66.7962 30.9475 66.3872 31.1179 66.1554 31.2133C65.7887 31.356 65.4129 31.4744 65.0307 31.5678C64.9058 31.5958 64.7761 31.5944 64.6519 31.5636C64.5277 31.5329 64.4123 31.4736 64.3149 31.3906C63.8855 31.0566 63.456 30.7089 63.0334 30.3885L59.6251 27.6619L54.5331 23.5719L50.8112 20.5862L45.6782 16.4962L42.9448 14.3149C42.2416 13.7987 41.4104 13.485 40.5415 13.4081C39.6726 13.3312 38.7992 13.4939 38.0164 13.8786C37.4656 14.2036 36.9454 14.5778 36.4622 14.9966C35.2284 15.9577 34.015 16.9393 32.788 17.9141L27.546 22.0722L23.4083 25.351L18.1595 29.5092L14.0695 32.7335L10.9066 35.242C10.503 35.5351 10.1758 35.9208 9.95228 36.3667C9.79851 36.7871 9.79851 37.2483 9.95228 37.6687C10.1465 38.3472 10.4706 38.9815 10.9066 39.5365C11.0498 39.7205 11.1452 39.741 11.3565 39.5774C12.9039 38.3367 14.4717 37.1029 16.0327 35.8623C16.172 35.7303 16.3443 35.6384 16.5315 35.5964C16.7187 35.5544 16.9138 35.5638 17.0961 35.6237C17.2731 35.6694 17.4285 35.7754 17.5355 35.9236C17.6426 36.0717 17.6945 36.2525 17.6823 36.4349C17.6823 40.234 17.7005 44.0309 17.7369 47.8255C17.7369 49.4547 17.7369 51.0906 17.7369 52.7198C17.7369 53.0879 17.7369 53.0947 18.18 53.0947H24.8398H26.6258C26.8371 53.0947 26.9052 53.1425 26.9052 53.3265C26.9052 53.7696 26.953 54.2058 26.9598 54.6489C26.9598 55.2011 26.7689 55.3306 26.1145 55.3306C22.2972 55.3306 26.1145 55.3306 22.304 55.3306L16.7416 55.3647Z" fill="#BD1622" stroke="#BD1622" stroke-width="1.4" stroke-miterlimit="10"/>
</svg>
