<svg width="48" height="48" viewBox="0 0 48 48" fill="none" xmlns="http://www.w3.org/2000/svg">
<path d="M42.6152 0H5.38475C2.41083 0 0 2.41083 0 5.38475V42.6152C0 45.5892 2.41083 48 5.38475 48H42.6152C45.5892 48 48 45.5892 48 42.6152V5.38475C48 2.41083 45.5892 0 42.6152 0Z" fill="#ECECEC"/>
<path fill-rule="evenodd" clip-rule="evenodd" d="M43.0034 24.1566C43.0024 27.9165 41.8866 31.5916 39.797 34.7173C37.7073 37.843 34.7377 40.2789 31.2637 41.7169C27.7897 43.1549 23.9673 43.5304 20.2798 42.796C16.5924 42.0615 13.2056 40.2502 10.5476 37.5909C7.88961 34.9316 6.07989 31.5438 5.34728 27.856C4.61468 24.1682 4.99208 20.346 6.43178 16.8727C7.87147 13.3994 10.3088 10.431 13.4355 8.3429C16.5622 6.2548 20.2379 5.14077 23.9978 5.14169C26.4943 5.14231 28.9662 5.63463 31.2724 6.59055C33.5786 7.54647 35.6739 8.94727 37.4387 10.713C39.2035 12.4787 40.6033 14.5747 41.5581 16.8813C42.5129 19.188 43.004 21.6601 43.0034 24.1566Z" fill="white"/>
<path fill-rule="evenodd" clip-rule="evenodd" d="M17.0001 19.6319L13.5225 22.1467C13.5225 22.1467 16.8272 21.4689 18.7249 24.0725L21.637 28.0924L21.7211 28.0363C21.9046 28.1742 22.1241 28.256 22.353 28.2717C22.582 28.2875 22.8106 28.2365 23.0112 28.1251C25.4465 26.8677 26.4889 27.1902 28.6717 29.0132C29.6962 29.8722 30.5385 30.9275 31.1491 32.1169C32.084 33.9539 33.0749 36.3237 34.3183 37.2586C35.1862 37.843 36.203 38.1674 37.249 38.1934C37.5356 37.1884 37.5258 36.1221 37.221 35.1224C36.6928 33.6594 34.8838 32.2758 33.2058 30.5837C31.5277 28.8917 31.3361 27.9007 31.1725 27.4146C29.8543 23.951 31.0369 22.4739 32.1401 21.4035C32.2653 21.2639 32.3456 21.0898 32.3706 20.9039C32.3957 20.718 32.3642 20.5289 32.2803 20.3611L32.3317 20.3237L32.1728 20.0994L31.8549 19.6319L29.4477 16.3039C29.415 16.2524 29.3261 16.1169 29.1859 15.9393L28.8821 15.5233H28.8447C27.9379 14.551 26.0822 13.1861 23.6656 14.7847L21.6323 16.2571C21.6323 16.2571 24.2639 15.743 26.1663 17.4678L25.741 17.7763C24.8342 16.9022 22.885 15.7663 19.8047 17.5753L18.8698 18.2671C18.8698 18.2671 21.464 17.7622 23.3711 19.5104L22.9411 19.8236C22.0343 18.9401 20.0991 17.7996 17.0001 19.6319ZM34.9259 35.057C34.8123 35.1268 34.6809 35.162 34.5476 35.1584C34.4144 35.1548 34.2851 35.1125 34.1754 35.0367C34.0658 34.9608 33.9806 34.8548 33.9302 34.7314C33.8798 34.608 33.8663 34.4725 33.8915 34.3416C33.9167 34.2107 33.9795 34.09 34.0721 33.9941C34.1647 33.8983 34.2832 33.8314 34.4131 33.8017C34.5431 33.772 34.6789 33.7807 34.804 33.8268C34.929 33.8729 35.038 33.9544 35.1176 34.0614C35.2123 34.2166 35.2452 34.4019 35.2097 34.5802C35.1742 34.7586 35.0729 34.9171 34.9259 35.0243V35.057ZM28.8026 17.5098L30.6723 20.0994L22.067 26.3208L20.1973 23.7313L28.8026 17.5098Z" fill="#BD1622"/>
<path d="M11.4803 37.9644H4.87555C4.20713 37.9597 4.13234 37.8615 4.16039 37.338C4.16039 37.0763 4.19311 36.8192 4.19778 36.5621C4.19778 36.4499 4.2492 36.4079 4.3754 36.4172C4.50161 36.4265 4.50628 36.4172 4.57172 36.4172H10.3912C10.882 36.4172 10.8212 36.4452 10.8212 36.0479C10.8212 33.1561 10.8212 30.2612 10.8212 27.3632C10.8329 27.2591 10.8329 27.154 10.8212 27.05C10.7838 26.9144 10.681 26.8864 10.5408 26.9565C10.4836 26.9819 10.4301 27.0149 10.3818 27.0547L8.31581 28.686C8.13291 28.8669 7.88599 28.9685 7.62869 28.9685C7.37139 28.9685 7.12448 28.8669 6.94157 28.686C6.28584 28.2232 5.77389 27.5849 5.46451 26.8443C5.16641 26.1281 5.1058 25.3352 5.29156 24.582C5.46451 23.9229 6.1563 23.2591 6.74058 22.8011C8.42332 21.4736 10.1014 20.1445 11.7748 18.8139L22.2404 10.5124C23.0538 9.86739 23.8531 9.21299 24.6804 8.58197C25.5103 7.97993 26.5103 7.65767 27.5355 7.66188C28.5608 7.66608 29.5581 7.99652 30.383 8.60534L45.8595 20.9781C45.9436 21.0436 45.9904 21.1277 45.8969 21.1744C45.8034 21.2212 45.5229 21.338 45.364 21.4035C45.1125 21.5013 44.8549 21.5825 44.5928 21.6465C44.5071 21.6657 44.4182 21.6648 44.333 21.6437C44.2478 21.6226 44.1687 21.5819 44.102 21.525C43.8075 21.296 43.513 21.0576 43.2232 20.8379L40.8861 18.9682L37.3944 16.1636L34.8422 14.1163L31.3225 11.3117L29.4481 9.81597C28.966 9.46197 28.396 9.2469 27.8002 9.19416C27.2044 9.14142 26.6055 9.25302 26.0687 9.51682C25.691 9.73965 25.3343 9.99623 25.0029 10.2834C24.1569 10.9425 23.3249 11.6156 22.4835 12.284L18.889 15.1353L16.0517 17.3836L12.4525 20.2349L9.64797 22.4458L7.47911 24.166C7.20238 24.3669 6.97796 24.6314 6.82472 24.9372C6.71928 25.2255 6.71928 25.5417 6.82472 25.83C6.95792 26.2952 7.18016 26.7302 7.47911 27.1107C7.57727 27.2369 7.64271 27.251 7.78762 27.1388C8.84867 26.2881 9.92375 25.442 10.9942 24.5913C11.0896 24.5008 11.2078 24.4378 11.3362 24.409C11.4646 24.3802 11.5983 24.3867 11.7233 24.4277C11.8447 24.459 11.9513 24.5318 12.0247 24.6333C12.0981 24.7349 12.1337 24.8589 12.1253 24.984C12.1253 27.5891 12.1378 30.1926 12.1627 32.7946C12.1627 33.9118 12.1627 35.0336 12.1627 36.1508C12.1627 36.4032 12.1627 36.4079 12.4666 36.4079H17.0333H18.258C18.4029 36.4079 18.4496 36.4406 18.4496 36.5668C18.4496 36.8706 18.4823 37.1698 18.487 37.4736C18.487 37.8522 18.3561 37.941 17.9074 37.941C15.2898 37.941 17.9074 37.941 15.2945 37.941L11.4803 37.9644Z" fill="#BD1622" stroke="#BD1622" stroke-width="1.4" stroke-miterlimit="10"/>
</svg>
